<svg xmlns="http://www.w3.org/2000/svg" xmlns:xlink="http://www.w3.org/1999/xlink" width="68.128" height="45.106" viewBox="0 0 68.128 45.106">
  <defs>
    <clipPath id="clip-path">
      <path id="Path_307141" data-name="Path 307141" d="M82.186,113.731c-3.107,0-5.734-1.8-5.771-3.941v-.133L76.47,108l-1.653-.077c-1.605-.081-3.424-.192-5.4-.328l-1.609-.114-.185,1.679v.018c-.251,1.886-2.5,3.321-5.258,3.321a8.491,8.491,0,0,1-.915-.052c-3.092-.351-5.505-2.443-5.288-4.579a.77.77,0,0,1,.033-.166l.247-1.506-1.476-.391a22.378,22.378,0,0,1-3.793-1.328,1.636,1.636,0,0,1-.262-.155V101.8a1.522,1.522,0,0,1,.369-.192c1.125-.417,2.332-.823,3.587-1.2l1.3-.4-.111-1.351c-.052-.594-.077-1.14-.077-1.664,0-.332,0-.683.033-1.07v-.4a6.373,6.373,0,0,1,.055-.642c.022-.214.037-.336.059-.5s.048-.336.074-.506.063-.369.1-.576a1.687,1.687,0,0,1,.059-.3v-.063c.044-.225.092-.446.144-.668h0a19.926,19.926,0,0,1,.83-2.62l.033-.066.022-.07c3.664-9.159,13.6-15.31,24.723-15.31s21.121,6.181,24.767,15.376l.018.052a20.225,20.225,0,0,1,.989,3.321s.055.266.074.369q.055.284.1.576c.026.17.052.336.074.506s.041.332.059.5.041.432.055.646v.395c.022.369.033.738.033,1.07s0,.646-.026.967c0,.181-.022.369-.037.535l-.118,1.476,1.3.391c1.332.4,2.605.827,3.779,1.262a1.687,1.687,0,0,1,.17.074v2.756l-.063.033a22.919,22.919,0,0,1-3.867,1.354l-1.476.369.232,1.5a.306.306,0,0,0,.026.148c.207,2.133-2.214,4.218-5.288,4.568a8.487,8.487,0,0,1-.915.052h0c-2.756,0-5.015-1.432-5.258-3.321l-.2-1.557-1.565.092c-1.694.1-3.517.181-5.413.247l-1.66.059.044,1.66v.122C87.913,111.934,85.286,113.731,82.186,113.731Z" transform="translate(-50.91 -74.2)" fill="none"/>
    </clipPath>
  </defs>
  <g id="Group_18162" data-name="Group 18162" transform="translate(4131 -887.866)">
    <path id="Path_307108" data-name="Path 307108" d="M78.438,112.148c-4.247,0-7.73-2.583-7.985-5.834-1.347-.066-2.83-.159-4.428-.269-.6,2.852-3.62,4.86-7.391,4.86a10.276,10.276,0,0,1-1.162-.066c-4.28-.483-7.48-3.517-7.277-6.83a23.081,23.081,0,0,1-3.69-1.343,3.731,3.731,0,0,1-1.428-1.166l-.107-.144V97.831a1.878,1.878,0,0,1,.638-1.435,3.734,3.734,0,0,1,1.188-.7c1.037-.369,2.14-.76,3.288-1.107-.033-.491-.048-.956-.048-1.406,0-.369,0-.76.033-1.188a1.41,1.41,0,0,1,.022-.3v-.137c0-.24.037-.48.059-.72.022-.185.044-.369.07-.557s.052-.369.081-.565.07-.424.107-.638c.022-.118.048-.232.074-.351v-.059c.052-.251.1-.5.166-.738V87.9a22.2,22.2,0,0,1,.945-2.952c3.981-10.04,14.76-16.789,26.845-16.789s22.83,6.731,26.822,16.745v.044a22.477,22.477,0,0,1,1.107,3.742l.018.077.066.328c.037.214.074.428.107.642s.059.369.081.561.048.369.07.557.044.48.063.72v.137c0,.1.018.2.022.3.022.428.033.816.033,1.188s0,.716-.026,1.077v.269c1.221.369,2.391.771,3.483,1.177a3.8,3.8,0,0,1,1.476.985l.144.159v4.8l-.144.159a3.779,3.779,0,0,1-1.2.886,23.761,23.761,0,0,1-3.9,1.4c.166,3.291-3.026,6.3-7.277,6.775a10.3,10.3,0,0,1-1.166.066h0c-3.719,0-6.723-1.978-7.38-4.771-1.417.078-2.911.148-4.428.2C86.139,109.584,82.667,112.148,78.438,112.148Z" transform="translate(-4175.409 820.275)" fill="#40017e"/>
    <path id="Path_307109" data-name="Path 307109" d="M77.479,67.723c12.177,0,22.535,6.871,26.324,16.439h0a22,22,0,0,1,1.089,3.649c.03.129.055.262.081.391.041.21.074.417.107.627s.055.369.081.55.044.369.063.542.044.465.063.7c0,.144.022.284.03.428.022.369.033.771.033,1.159s0,.7-.022,1.048c0,.236-.033.469-.052.7,1.443.435,2.745.875,3.874,1.291a3.174,3.174,0,0,1,1.266.845h0v4.354a3.277,3.277,0,0,1-1.022.76,24.458,24.458,0,0,1-4.277,1.476,1.437,1.437,0,0,0,.033.173c.369,3.111-2.679,6-6.764,6.465a10.21,10.21,0,0,1-1.107.063c-3.587,0-6.568-2-6.922-4.8-1.731.1-3.542.181-5.45.247v.118c0,3.125-3.321,5.66-7.443,5.66s-7.446-2.535-7.446-5.66v-.144c-1.7-.085-3.572-.2-5.439-.332v.052c-.321,2.827-3.321,4.856-6.933,4.856a10.212,10.212,0,0,1-1.107-.063c-4.085-.461-7.114-3.354-6.764-6.465a1.554,1.554,0,0,1,.041-.221A24.009,24.009,0,0,1,45.73,101.2a3.258,3.258,0,0,1-1.221-1h0V96.885h0a1.351,1.351,0,0,1,.258-.8,1.173,1.173,0,0,1,.192-.214,3.288,3.288,0,0,1,1.015-.6c1.081-.4,2.314-.819,3.69-1.232-.048-.6-.077-1.2-.077-1.808,0-.369,0-.775.033-1.159a2.089,2.089,0,0,1,.03-.428c.018-.236.037-.469.063-.7s.041-.369.066-.542.048-.369.077-.55.066-.417.107-.624c.026-.133.052-.266.081-.4.052-.247.1-.494.162-.738h0a21.971,21.971,0,0,1,.926-2.9h0c3.79-9.568,14.144-16.439,26.328-16.439m0-1.107c-12.291,0-23.273,6.874-27.346,17.107h0v.033a22.714,22.714,0,0,0-.963,3.018h0c-.063.262-.114.517-.17.775v.066c-.022.114-.048.232-.07.351-.041.218-.077.439-.111.657s-.059.369-.085.576-.048.369-.07.572-.044.491-.063.738v.137l-.022.314c-.022.435-.033.838-.033,1.218s0,.664.022,1.007c-1.007.321-1.982.657-2.9,1a4.325,4.325,0,0,0-1.362.808,2.254,2.254,0,0,0-.369.391,2.494,2.494,0,0,0-.469,1.476v3.69l.218.306a4.343,4.343,0,0,0,1.638,1.336,23.292,23.292,0,0,0,3.384,1.258c.074,3.424,3.395,6.469,7.775,6.963a11.361,11.361,0,0,0,1.225.07c3.841,0,6.959-1.985,7.826-4.841,1.244.081,2.417.155,3.509.214.561,3.3,4.148,5.856,8.487,5.856s7.878-2.531,8.487-5.815c1.218-.048,2.406-.1,3.546-.162.911,2.8,4.011,4.749,7.793,4.749a11.364,11.364,0,0,0,1.225-.07c4.358-.491,7.664-3.505,7.775-6.908a23.37,23.37,0,0,0,3.583-1.314,4.384,4.384,0,0,0,1.369-1.015l.288-.317v-5.2l-.292-.321a4.3,4.3,0,0,0-1.694-1.133c-.978-.369-2.015-.716-3.1-1.055,0-.314.018-.631.018-.948,0-.369,0-.779-.033-1.218l-.022-.314v-.137c-.018-.247-.037-.494-.063-.738s-.044-.369-.07-.568-.052-.369-.085-.579-.07-.439-.111-.657c-.022-.118-.044-.232-.07-.347v-.07a23.522,23.522,0,0,0-1.14-3.819h0C100.858,73.509,89.855,66.62,77.556,66.62Z" transform="translate(-4174.45 821.246)" fill="#40017e"/>
    <path id="Path_307110" data-name="Path 307110" d="M80.281,112.9c-3.8,0-6.893-2.291-6.893-5.107v-.672l-.542-.026c-1.613-.077-3.439-.188-5.428-.328l-.531-.041-.063.557v.052c-.251,2.476-3,4.321-6.347,4.321a9.891,9.891,0,0,1-1.041-.059c-3.775-.428-6.59-3.052-6.273-5.852a.7.7,0,0,1,.018-.085v-.107l.085-.5-.491-.129a23.493,23.493,0,0,1-3.981-1.387,2.65,2.65,0,0,1-.9-.69V99.707a.808.808,0,0,1,.151-.48.7.7,0,0,1,.111-.122,2.676,2.676,0,0,1,.841-.5c1.144-.424,2.373-.834,3.649-1.225l.428-.129-.037-.446c-.052-.631-.077-1.207-.077-1.76,0-.351,0-.72.033-1.129V93.5a6.012,6.012,0,0,1,.059-.683c.026-.225.041-.369.063-.531l.077-.535c.033-.2.066-.406.1-.609l.066-.325v-.059c.048-.236.1-.469.151-.7v-.026a21.4,21.4,0,0,1,.9-2.834C58.229,77.575,68.6,71.11,80.244,71.11s22,6.465,25.83,16.088v.044a21.746,21.746,0,0,1,1.048,3.517v.081c.022.1.044.2.063.3.037.2.07.406.1.613s.055.369.078.531.044.369.063.531.044.454.059.683v.144l.022.273c.022.41.03.779.03,1.129s0,.683-.022,1.022c0,.188-.026.369-.041.565l-.044.565.428.125c1.354.41,2.646.841,3.841,1.284a2.7,2.7,0,0,1,.9.55v3.9a2.69,2.69,0,0,1-.7.483,23.563,23.563,0,0,1-4.177,1.45l-.483.125.074.494a.213.213,0,0,0,.018.1v.052c.314,2.8-2.5,5.421-6.273,5.849a9.891,9.891,0,0,1-1.041.059h0c-3.321,0-6.059-1.845-6.373-4.314l-.063-.513-.517.03c-1.716.1-3.546.181-5.439.247h-.55v.642C87.17,110.611,84.092,112.9,80.281,112.9Z" transform="translate(-4177.252 818.413)" fill="#40017e"/>
    <path id="Path_307111" data-name="Path 307111" d="M79.315,70.692c11.395,0,21.557,6.321,25.287,15.712h0v.026a20.926,20.926,0,0,1,1.033,3.458v.07a1.825,1.825,0,0,0,.059.3c.037.2.07.395.1.594s.052.347.074.52.044.339.063.517.041.443.059.664v.406c.022.4.03.756.03,1.107s0,.668-.022,1c0,.184-.026.369-.041.553v.111l-.074.889.856.258c1.347.406,2.627.834,3.812,1.273a2.13,2.13,0,0,1,.542.292v3.391a1.874,1.874,0,0,1-.387.236,22.788,22.788,0,0,1-4.081,1.413l-.97.251.155.993.022.129h0c.269,2.491-2.325,4.834-5.79,5.225a8.684,8.684,0,0,1-.978.055c-3.044,0-5.535-1.646-5.823-3.83l-.129-1.026-1.033.059c-1.7.1-3.531.181-5.424.247l-1.107.041.026,1.107v.114c-.018,2.5-2.856,4.528-6.336,4.528s-6.325-2.029-6.339-4.531h0v-.129l.037-1.107-1.107-.052c-1.609-.077-3.428-.188-5.417-.328l-1.07-.074-.107,1.066v.074c-.269,2.188-2.767,3.838-5.826,3.838a8.683,8.683,0,0,1-.977-.055c-3.473-.395-6.071-2.742-5.791-5.233V104.8l.022-.129.166-.993-.974-.258a22.729,22.729,0,0,1-3.786-1.351,2.111,2.111,0,0,1-.587-.406V98.736a.266.266,0,0,1,.044-.155l.03-.033a2.152,2.152,0,0,1,.661-.406c1.133-.421,2.351-.83,3.62-1.214l.856-.262-.077-.893c-.052-.613-.074-1.173-.074-1.712,0-.343,0-.7.03-1.107v-.406c0-.221.037-.447.059-.668s.041-.343.063-.513.048-.347.074-.52.066-.4.1-.594a1.456,1.456,0,0,1,.063-.306v-.07c.048-.232.1-.461.148-.683h0v-.022a21.77,21.77,0,0,1,.882-2.76h0C57.7,77,67.861,70.677,79.263,70.677m0-1.107c-12.177,0-22.538,6.871-26.328,16.439h0a21.969,21.969,0,0,0-.878,2.908h0c-.059.244-.111.491-.162.738-.03.133-.055.266-.081.4-.041.207-.074.413-.107.624s-.055.369-.077.55-.048.369-.066.542-.044.465-.063.7c0,.144-.022.284-.03.428-.022.369-.033.771-.033,1.159,0,.609.03,1.21.077,1.808-1.365.413-2.583.834-3.69,1.232a3.288,3.288,0,0,0-1.015.6,1.173,1.173,0,0,0-.192.214,1.351,1.351,0,0,0-.258.8h0v3.321h0a3.258,3.258,0,0,0,1.221,1,24.007,24.007,0,0,0,4.085,1.435,1.553,1.553,0,0,1-.041.221c-.351,3.111,2.679,6,6.764,6.465a10.207,10.207,0,0,0,1.107.063c3.612,0,6.612-2.029,6.933-4.856v-.052c1.867.133,3.742.247,5.439.332v.144c0,3.125,3.321,5.66,7.446,5.66s7.443-2.535,7.443-5.66v-.118c1.908-.066,3.719-.148,5.45-.247.369,2.793,3.321,4.8,6.922,4.8a10.214,10.214,0,0,0,1.107-.063c4.085-.461,7.114-3.354,6.764-6.465a.959.959,0,0,0-.033-.173,24.458,24.458,0,0,0,4.277-1.476,3.277,3.277,0,0,0,1.022-.76V97.964h0A3.173,3.173,0,0,0,111,97.119c-1.129-.417-2.432-.856-3.874-1.291.018-.232.037-.465.052-.7,0-.347.022-.7.022-1.048s0-.775-.033-1.159c0-.144-.018-.284-.03-.428a6.346,6.346,0,0,0-.063-.7c-.026-.232-.041-.369-.063-.542s-.052-.369-.081-.55-.066-.417-.107-.627c-.026-.129-.052-.262-.081-.391a22,22,0,0,0-1.089-3.649h0c-3.79-9.568-14.144-16.439-26.324-16.439Z" transform="translate(-4176.286 819.385)" fill="#9e91ff"/>
    <g id="Group_18161" data-name="Group 18161" transform="translate(-4128.247 890.663)" clip-path="url(#clip-path)">
      <path id="Path_307112" data-name="Path 307112" d="M112.148,86.289A12.409,12.409,0,1,1,99.739,98.7a12.409,12.409,0,0,1,12.409-12.409m0-.369A12.778,12.778,0,1,0,124.927,98.7,12.778,12.778,0,0,0,112.148,85.92Z" transform="translate(-81.488 -81.595)" fill="#fff"/>
      <path id="Path_307113" data-name="Path 307113" d="M143.681,95.688a4.384,4.384,0,0,1-1.716-.4c-1.369-.616-2.181-1.672-1.845-2.406a1.331,1.331,0,0,1,1.31-.62,4.314,4.314,0,0,1,1.716.406c1.369.613,2.181,1.668,1.845,2.4A1.32,1.32,0,0,1,143.681,95.688Z" transform="translate(-107.154 -85.596)" fill="#fff"/>
      <path id="Path_307114" data-name="Path 307114" d="M141.107,92.154a4.122,4.122,0,0,1,1.642.391c1.255.561,2.041,1.528,1.76,2.159-.155.339-.583.509-1.144.509a4.126,4.126,0,0,1-1.642-.369c-1.251-.561-2.041-1.528-1.756-2.159.151-.339.579-.513,1.14-.513m0-.369h0a1.482,1.482,0,0,0-1.476.738c-.369.841.461,1.982,1.945,2.646a4.505,4.505,0,0,0,1.793.421,1.482,1.482,0,0,0,1.476-.738c.369-.845-.458-1.982-1.945-2.649a4.568,4.568,0,0,0-1.793-.421Z" transform="translate(-106.838 -85.306)" fill="#40017e"/>
      <rect id="Rectangle_6005" data-name="Rectangle 6005" width="2.738" height="2.303" transform="translate(29.276 27)" fill="#fff"/>
      <path id="Path_307115" data-name="Path 307115" d="M132.484,147.229v1.934h-2.365v-1.934h2.365m.369-.369h-3.1v2.672h3.1Z" transform="translate(-100.658 -120.049)" fill="#40017e"/>
      <rect id="Rectangle_6006" data-name="Rectangle 6006" width="0.838" height="1.934" transform="translate(30.988 27.184)" fill="#7fb7fc"/>
      <path id="Path_307116" data-name="Path 307116" d="M119.534,118.181a4.218,4.218,0,0,1-1.823-.421,10.841,10.841,0,0,1-6.487-10.14v-.063c0-4.454,3.9-8.077,8.7-8.077a8.159,8.159,0,0,1,8.513,8.026,11.474,11.474,0,0,1-7.225,10.332,4.177,4.177,0,0,1-1.679.351Z" transform="translate(-88.967 -90.152)" fill="#fff"/>
      <path id="Path_307117" data-name="Path 307117" d="M119.616,99.369a7.914,7.914,0,0,1,8.328,7.849,11.381,11.381,0,0,1-7.114,10.147,4,4,0,0,1-3.35-.066,10.6,10.6,0,0,1-6.376-10.037c0-4.358,3.812-7.893,8.513-7.893m0-.369c-4.9,0-8.882,3.69-8.882,8.262v.059a11.022,11.022,0,0,0,6.59,10.31,4.365,4.365,0,0,0,3.657.074,11.645,11.645,0,0,0,7.336-10.5A8.307,8.307,0,0,0,119.616,99Z" transform="translate(-88.657 -89.849)" fill="#40017e"/>
      <path id="Path_307118" data-name="Path 307118" d="M140.646,107.829a7.914,7.914,0,0,0-8.328-7.849,9.8,9.8,0,0,0-1.048.066,7.83,7.83,0,0,1,7.24,7.782,11.388,11.388,0,0,1-7.118,10.147,4.526,4.526,0,0,1-.531.185,4.015,4.015,0,0,0,2.672-.185A11.34,11.34,0,0,0,140.646,107.829Z" transform="translate(-101.359 -90.467)" fill="#7fb7fc"/>
      <path id="Path_307119" data-name="Path 307119" d="M120.138,120.277c.605,1.288.391,2.664-.476,3.07a2.434,2.434,0,0,1-2.653-.871,2.793,2.793,0,0,1-.45-1.727,2.451,2.451,0,0,1,.915-2.074C118.341,118.27,119.532,118.986,120.138,120.277Z" transform="translate(-92.33 -102.193)" fill="#40017e"/>
      <path id="Path_307120" data-name="Path 307120" d="M142.1,120.277c-.605,1.288-.391,2.664.476,3.07a2.432,2.432,0,0,0,2.653-.871,2.793,2.793,0,0,0,.45-1.727,2.442,2.442,0,0,0-.915-2.074C143.9,118.27,142.707,118.986,142.1,120.277Z" transform="translate(-108.235 -102.193)" fill="#40017e"/>
      <path id="Path_307121" data-name="Path 307121" d="M146.887,158.389a4.324,4.324,0,0,1-1.17-.162l-1.668-.476a1.845,1.845,0,0,1-1.03.321,2.456,2.456,0,0,1,0-4.86,1.985,1.985,0,0,1,1.561.819l2.151.609a.617.617,0,0,0,.162.022.594.594,0,0,0,.509-.284l2.771-4.6,3.188,1.926-2.779,4.6A4.354,4.354,0,0,1,146.887,158.389Z" transform="translate(-107.707 -121.891)" fill="#fff"/>
      <path id="Path_307122" data-name="Path 307122" d="M149.948,149.608l2.871,1.738-2.683,4.428a4.148,4.148,0,0,1-3.546,2,4.012,4.012,0,0,1-1.107-.159l-1.753-.494a1.694,1.694,0,0,1-1,.336,2.274,2.274,0,0,1,0-4.491,1.812,1.812,0,0,1,1.45.793l2.214.627a.69.69,0,0,0,.21.03.782.782,0,0,0,.668-.369l2.683-4.428m-.125-.506-.192.317-2.683,4.428a.41.41,0,0,1-.351.2.37.37,0,0,1-.111,0l-2.1-.594a2.151,2.151,0,0,0-1.668-.841,2.638,2.638,0,0,0,0,5.229,2.051,2.051,0,0,0,1.059-.3l1.587.45a4.513,4.513,0,0,0,5.085-2l2.683-4.428.192-.317-.317-.192-2.871-1.734-.317-.192Z" transform="translate(-107.41 -121.468)" fill="#40017e"/>
      <path id="Path_307123" data-name="Path 307123" d="M152.547,153.67l-2.214,3.69a4.14,4.14,0,0,1-4.664,1.845l-1.753-.5a1.694,1.694,0,0,1-1,.336,1.8,1.8,0,0,1-1.45-.793,2.074,2.074,0,0,0,1.9,2.111,1.694,1.694,0,0,0,1-.336l1.753.494a4.011,4.011,0,0,0,1.107.159,4.148,4.148,0,0,0,3.546-2l2.683-4.428Z" transform="translate(-108.054 -124.346)" fill="#7fb7fc"/>
      <path id="Path_307124" data-name="Path 307124" d="M167.252,144.835a.823.823,0,0,1-.424-.114l-1.874-1.081a.852.852,0,0,1-.314-1.159l.97-1.683a.86.86,0,0,1,.369-.347l.273-2.358a.509.509,0,0,1,.506-.454h.059l.768.089a.52.52,0,0,1,.343.192.494.494,0,0,1,.107.369l-.269,2.339a.129.129,0,0,0,.033.111.144.144,0,0,0,.111.052.155.155,0,0,0,.092-.037l1.845-1.609a.513.513,0,0,1,.336-.125.52.52,0,0,1,.369.173l.509.579a.528.528,0,0,1,.125.369.5.5,0,0,1-.173.351l-1.967,1.727a.842.842,0,0,1-.111.5l-.945,1.7A.856.856,0,0,1,167.252,144.835Z" transform="translate(-122.603 -114.231)" fill="#fff"/>
      <path id="Path_307125" data-name="Path 307125" d="M166.487,137.522h.041l.768.089a.332.332,0,0,1,.288.369l-.273,2.343a.328.328,0,0,0,.328.369.317.317,0,0,0,.214-.085L169.7,139a.325.325,0,0,1,.214-.081.328.328,0,0,1,.247.111l.509.579a.328.328,0,0,1-.03.461l-2.044,1.8a.642.642,0,0,1-.07.476l-.97,1.679a.661.661,0,0,1-.576.332.649.649,0,0,1-.332-.089l-1.874-1.085a.661.661,0,0,1-.244-.9l.97-1.683a.664.664,0,0,1,.395-.306l.284-2.469a.332.332,0,0,1,.325-.292m0-.369h0a.7.7,0,0,0-.69.616l-.262,2.262a1.029,1.029,0,0,0-.369.369l-.97,1.683a1.033,1.033,0,0,0,.369,1.41l1.875,1.085a1.059,1.059,0,0,0,.517.137,1.033,1.033,0,0,0,.9-.517l.97-1.679a1.033,1.033,0,0,0,.137-.509l1.9-1.668a.7.7,0,0,0,.236-.48.69.69,0,0,0-.173-.506l-.509-.579a.69.69,0,0,0-.524-.236.679.679,0,0,0-.458.173l-1.749,1.535.258-2.214a.679.679,0,0,0-.148-.513.668.668,0,0,0-.465-.258l-.768-.092Z" transform="translate(-122.314 -113.928)" fill="#40017e"/>
      <path id="Path_307126" data-name="Path 307126" d="M171.271,142.625l-.509-.579a.314.314,0,0,0-.17-.1.325.325,0,0,1-.048.428l-2.044,1.8a.686.686,0,0,1-.07.48l-.971,1.679a.668.668,0,0,1-.908.244l-1.5-.867a.646.646,0,0,0,.325.491l1.871,1.074a.664.664,0,0,0,.908-.244l.97-1.679a.642.642,0,0,0,.07-.476l2.044-1.8A.328.328,0,0,0,171.271,142.625Z" transform="translate(-122.933 -116.95)" fill="#7fb7fc"/>
      <path id="Path_307127" data-name="Path 307127" d="M111.51,170.52l1.476-8.487a2.8,2.8,0,0,1-.089-.672,2.121,2.121,0,1,1,4.2,0,2.631,2.631,0,0,1-.472,1.52l-1.439,8.288Z" transform="translate(-89.149 -127.665)" fill="#fff"/>
      <path id="Path_307128" data-name="Path 307128" d="M114.611,158.759a2.1,2.1,0,0,1,1.915,2.247,2.457,2.457,0,0,1-.461,1.446l-1.413,8.147-3.321-.572,1.458-8.358a2.446,2.446,0,0,1-.1-.664,2.1,2.1,0,0,1,1.911-2.247m0-.369a2.468,2.468,0,0,0-2.28,2.616,2.828,2.828,0,0,0,.085.679l-1.435,8.28-.063.369.369.063,3.321.576.369.063.063-.369,1.4-8.066a2.8,2.8,0,0,0,.483-1.59,2.468,2.468,0,0,0-2.284-2.616Z" transform="translate(-88.77 -127.324)" fill="#40017e"/>
      <path id="Path_307129" data-name="Path 307129" d="M118.8,159.369c-.465.07-1.063.978-1.041,2.048s.159,7.542.159,7.542l-.369,2.029,1.277.221,1.413-8.147a2.458,2.458,0,0,0,.461-1.446C120.716,160.376,119.849,159.225,118.8,159.369Z" transform="translate(-92.96 -127.934)" fill="#7fb7fc"/>
      <rect id="Rectangle_6007" data-name="Rectangle 6007" width="9.782" height="14.181" rx="4.891" transform="translate(25.8 30.191)" fill="#fff"/>
      <path id="Path_307130" data-name="Path 307130" d="M127.16,155.879a2.952,2.952,0,0,1,2.952,2.952v7.908a2.952,2.952,0,0,1-2.952,2.952h-3.509a2.952,2.952,0,0,1-2.952-2.952v-7.908a2.952,2.952,0,0,1,2.952-2.952h3.509m0-.369h-3.509a3.321,3.321,0,0,0-3.321,3.321v7.908a3.321,3.321,0,0,0,3.321,3.321h3.509a3.321,3.321,0,0,0,3.321-3.321v-7.908A3.321,3.321,0,0,0,127.16,155.51Z" transform="translate(-94.714 -125.507)" fill="#40017e"/>
      <path id="Path_307131" data-name="Path 307131" d="M136.019,156.51H134.37a2.952,2.952,0,0,1,2.952,2.952v7.908a2.952,2.952,0,0,1-2.952,2.952h1.649a2.952,2.952,0,0,0,2.952-2.952v-7.908A2.952,2.952,0,0,0,136.019,156.51Z" transform="translate(-103.573 -126.138)" fill="#7fb7fc"/>
      <path id="Path_307132" data-name="Path 307132" d="M132.246,169.132a1.026,1.026,0,1,1,1.026-1.026A1.026,1.026,0,0,1,132.246,169.132Z" transform="translate(-101.586 -132.808)" fill="#fff"/>
      <path id="Path_307133" data-name="Path 307133" d="M131.93,166.959a.841.841,0,1,1-.838.838.841.841,0,0,1,.838-.838m0-.369a1.21,1.21,0,1,0,1.21,1.207A1.21,1.21,0,0,0,131.93,166.59Z" transform="translate(-101.27 -132.498)" fill="#40017e"/>
      <path id="Path_307134" data-name="Path 307134" d="M130.408,160.39a1.779,1.779,0,1,1,2.151-1.742A1.98,1.98,0,0,1,130.408,160.39Z" transform="translate(-99.718 -126.39)" fill="#fff"/>
      <path id="Path_307135" data-name="Path 307135" d="M130.092,156.779a1.6,1.6,0,1,1-1.963,1.553,1.794,1.794,0,0,1,1.963-1.553m0-.369a1.961,1.961,0,1,0,2.336,1.922A2.159,2.159,0,0,0,130.092,156.41Z" transform="translate(-99.403 -126.075)" fill="#40017e"/>
      <rect id="Rectangle_6008" data-name="Rectangle 6008" width="7.863" height="1.694" rx="0.847" transform="translate(26.76 28.867)" fill="#fff"/>
      <path id="Path_307136" data-name="Path 307136" d="M130.277,152.3a.517.517,0,0,1,.517.513v.291a.517.517,0,0,1-.517.517h-6.461a.517.517,0,0,1-.517-.517v-.291a.517.517,0,0,1,.517-.513h6.461m0-.369h-6.461a.886.886,0,0,0-.886.882v.291a.886.886,0,0,0,.886.886h6.461a.886.886,0,0,0,.886-.886v-.291A.886.886,0,0,0,130.277,151.93Z" transform="translate(-96.355 -123.248)" fill="#40017e"/>
      <path id="Path_307137" data-name="Path 307137" d="M140.707,153.443v.292a.513.513,0,0,1-.517.517h.978a.517.517,0,0,0,.517-.517v-.292a.517.517,0,0,0-.517-.513h-.978a.513.513,0,0,1,.517.513Z" transform="translate(-107.246 -123.879)" fill="#7fb7fc"/>
      <path id="Path_307138" data-name="Path 307138" d="M133.046,158.495a1.482,1.482,0,1,1-1.428-1.085A1.293,1.293,0,0,1,133.046,158.495Z" transform="translate(-100.936 -126.706)" fill="#40017e"/>
      <rect id="Rectangle_6009" data-name="Rectangle 6009" width="8.834" height="1.863" rx="0.932" transform="translate(26.273 30.191)" fill="#fff"/>
      <path id="Path_307139" data-name="Path 307139" d="M129.872,155.892a.583.583,0,0,1,.583.583v.336a.583.583,0,0,1-.583.583h-7.31a.583.583,0,0,1-.583-.583v-.328a.583.583,0,0,1,.583-.583h7.31m0-.369h-7.31a.956.956,0,0,0-.952.952v.328a.952.952,0,0,0,.952.952h7.31a.952.952,0,0,0,.952-.952v-.328A.956.956,0,0,0,129.872,155.53Z" transform="translate(-95.522 -125.519)" fill="#40017e"/>
      <path id="Path_307140" data-name="Path 307140" d="M142.486,156.51H141.6a.579.579,0,0,1,.579.583v.336a.579.579,0,0,1-.579.583h.886a.583.583,0,0,0,.583-.583V157.1a.583.583,0,0,0-.583-.59Z" transform="translate(-108.136 -126.138)" fill="#7fb7fc"/>
    </g>
    <path id="Path_307142" data-name="Path 307142" d="M82.186,113.731c-3.107,0-5.734-1.8-5.771-3.941v-.133L76.47,108l-1.653-.077c-1.605-.081-3.424-.192-5.4-.328l-1.609-.114-.185,1.679v.018c-.251,1.886-2.5,3.321-5.258,3.321a8.491,8.491,0,0,1-.915-.052c-3.092-.351-5.505-2.443-5.288-4.579a.77.77,0,0,1,.033-.166l.247-1.506-1.476-.391a22.378,22.378,0,0,1-3.793-1.328,1.636,1.636,0,0,1-.262-.155V101.8a1.522,1.522,0,0,1,.369-.192c1.125-.417,2.332-.823,3.587-1.2l1.3-.4-.111-1.351c-.052-.594-.077-1.14-.077-1.664,0-.332,0-.683.033-1.07v-.4a6.373,6.373,0,0,1,.055-.642c.022-.214.037-.336.059-.5s.048-.336.074-.506.063-.369.1-.576a1.687,1.687,0,0,1,.059-.3v-.063c.044-.225.092-.446.144-.668h0a19.926,19.926,0,0,1,.83-2.62l.033-.066.022-.07c3.664-9.159,13.6-15.31,24.723-15.31s21.121,6.181,24.767,15.376l.018.052a20.225,20.225,0,0,1,.989,3.321s.055.266.074.369q.055.284.1.576c.026.17.052.336.074.506s.041.332.059.5.041.432.055.646v.395c.022.369.033.738.033,1.07s0,.646-.026.967c0,.181-.022.369-.037.535l-.118,1.476,1.3.391c1.332.4,2.605.827,3.779,1.262a1.687,1.687,0,0,1,.17.074v2.756l-.063.033a22.919,22.919,0,0,1-3.867,1.354l-1.476.369.232,1.5a.306.306,0,0,0,.026.148c.207,2.133-2.214,4.218-5.288,4.568a8.487,8.487,0,0,1-.915.052h0c-2.756,0-5.015-1.432-5.258-3.321l-.2-1.557-1.565.092c-1.694.1-3.517.181-5.413.247l-1.66.059.044,1.66v.122C87.913,111.934,85.286,113.731,82.186,113.731Z" transform="translate(-4179.157 816.463)" fill="none" stroke="#fff" stroke-linecap="round" stroke-linejoin="round" stroke-width="2"/>
    <path id="Path_307143" data-name="Path 307143" d="M88.43,125.981a1.184,1.184,0,0,1,1.181,1.181,1.181,1.181,0,0,1,1.181-1.181,1.181,1.181,0,0,1-1.181-1.181A1.181,1.181,0,0,1,88.43,125.981Z" transform="translate(-4202.833 784.535)" fill="#fff"/>
    <path id="Path_307144" data-name="Path 307144" d="M164.38,91.691a1.181,1.181,0,0,1,1.181,1.181,1.181,1.181,0,0,1,1.181-1.181,1.184,1.184,0,0,1-1.181-1.181A1.181,1.181,0,0,1,164.38,91.691Z" transform="translate(-4250.757 806.172)" fill="#fff"/>
    <path id="Path_307145" data-name="Path 307145" d="M100.32,146.819a.886.886,0,0,1,.889.886.886.886,0,0,1,.889-.886.889.889,0,0,1-.889-.889A.889.889,0,0,1,100.32,146.819Z" transform="translate(-4210.335 771.201)" fill="#9e91ff"/>
    <path id="Path_307146" data-name="Path 307146" d="M185.82,160.452a1.568,1.568,0,0,1,1.568,1.568,1.568,1.568,0,0,1,1.572-1.568,1.572,1.572,0,0,1-1.572-1.572,1.568,1.568,0,0,1-1.568,1.572Z" transform="translate(-4264.286 763.03)" fill="#7fb7fc"/>
    <path id="Path_307147" data-name="Path 307147" d="M69.34,126.188a.911.911,0,0,1,.908.911.911.911,0,0,1,.908-.911.908.908,0,0,1-.908-.908A.908.908,0,0,1,69.34,126.188Z" transform="translate(-4190.787 784.232)" fill="#fff"/>
    <path id="Path_307148" data-name="Path 307148" d="M95.39,92.158a.908.908,0,0,1,.908.908.908.908,0,0,1,.908-.908.908.908,0,0,1-.908-.908A.908.908,0,0,1,95.39,92.158Z" transform="translate(-4207.224 805.705)" fill="#fff"/>
    <path id="Path_307149" data-name="Path 307149" d="M143.09,77.588A.911.911,0,0,1,144,78.5a.908.908,0,0,1,.9-.908.908.908,0,0,1-.908-.908A.911.911,0,0,1,143.09,77.588Z" transform="translate(-4237.323 814.898)" fill="#fff"/>
    <path id="Path_307150" data-name="Path 307150" d="M194.33,139.048a.908.908,0,1,0,1.815,0,.908.908,0,1,0-1.815,0Z" transform="translate(-4269.655 776.117)" fill="#fff"/>
    <path id="Path_307151" data-name="Path 307151" d="M76.48,122.154a.808.808,0,0,1,.8.808.808.808,0,0,1,.808-.808.8.8,0,0,1-.808-.8A.8.8,0,0,1,76.48,122.154Z" transform="translate(-4195.292 786.712)" fill="#9e91ff"/>
    <path id="Path_307152" data-name="Path 307152" d="M207,152.8a.806.806,0,1,0,1.613,0,.806.806,0,0,0-1.613,0Z" transform="translate(-4277.65 767.371)" fill="#9e91ff"/>
    <path id="Path_307153" data-name="Path 307153" d="M176.94,131.158a.808.808,0,1,0,1.616,0,.808.808,0,0,0-1.616,0Z" transform="translate(-4258.683 781.033)" fill="#9e91ff"/>
    <path id="Path_307154" data-name="Path 307154" d="M115.41,82.421a.8.8,0,0,1,.8.815.808.808,0,0,1,.808-.808.808.808,0,0,1-.808-.808A.8.8,0,0,1,115.41,82.421Z" transform="translate(-4219.856 811.781)" fill="#9e91ff"/>
    <path id="Path_307155" data-name="Path 307155" d="M65.91,153.166a1.269,1.269,0,0,1,1.266,1.266,1.269,1.269,0,0,1,1.266-1.266,1.266,1.266,0,0,1-1.266-1.266A1.266,1.266,0,0,1,65.91,153.166Z" transform="translate(-4188.622 767.434)" fill="#7fb7fc"/>
    <path id="Path_307156" data-name="Path 307156" d="M179.9,100.273a1.262,1.262,0,0,1,1.266,1.266,1.266,1.266,0,0,1,1.266-1.266A1.269,1.269,0,0,1,181.166,99a1.266,1.266,0,0,1-1.266,1.273Z" transform="translate(-4260.55 800.814)" fill="#7fb7fc"/>
    <path id="Path_307157" data-name="Path 307157" d="M76.17,136.97a1.3,1.3,0,0,0-.173.738,1.276,1.276,0,0,0,2.17.823,1.72,1.72,0,0,0,.218-2.362,2.107,2.107,0,0,0-2.509-.642,2.589,2.589,0,0,0-1.332,3.077c.664,2.8,4.83,2.679,6.007.369a4.542,4.542,0,0,0-1.435-5.587c-2.753-1.845-6.218-.162-6.845,1" transform="translate(-4192.635 779.633)" fill="none" stroke="#9e91ff" stroke-linecap="round" stroke-linejoin="round" stroke-width="0.75"/>
    <path id="Path_307158" data-name="Path 307158" d="M78.851,141.04a1.28,1.28,0,0,0-2.066-1.476,1.72,1.72,0,0,0-.14,2.369,2.111,2.111,0,0,0,2.55.542,2.591,2.591,0,0,0,1.232-3.118c-.738-2.782-4.911-2.528-6.015-.177a4.539,4.539,0,0,0,1.613,5.535c2.808,1.768,6.218-.033,6.808-1.214" transform="translate(-4193.756 776.62)" fill="none" stroke="#9e91ff" stroke-linecap="round" stroke-linejoin="round" stroke-width="0.75"/>
    <path id="Path_307159" data-name="Path 307159" d="M184.013,117.166a2.443,2.443,0,1,1-.714-1.73,2.446,2.446,0,0,1,.714,1.73Z" transform="translate(-4260.058 790.895)" fill="#fff"/>
    <path id="Path_307160" data-name="Path 307160" d="M183.546,116.09a2.446,2.446,0,0,1-3.646,3.085,2.443,2.443,0,1,0,3.646-3.085Z" transform="translate(-4260.55 790.031)" fill="#7fb7fc"/>
    <path id="Path_307161" data-name="Path 307161" d="M180.132,116.774a2.356,2.356,0,0,1-.044.4c1.133.779,1.819,1.45,1.675,1.708-.21.369-2.162-.284-4.358-1.476s-3.808-2.5-3.594-2.886c.137-.247,1.015-.052,2.214.45a2.918,2.918,0,0,1,.314-.251c-1.716-.694-3.066-.9-3.321-.41-.369.664,1.435,2.358,4.022,3.782s4.981,2.041,5.347,1.376C182.649,118.958,181.708,117.881,180.132,116.774Z" transform="translate(-4256.178 791.321)" fill="#9e91ff"/>
    <path id="Path_307162" data-name="Path 307162" d="M78.607,106.783a.6.6,0,0,1-.487-.247.616.616,0,0,1-.111-.45.6.6,0,0,1,.244-.395l.915-.664a.605.605,0,0,1-.125-1.048l2.28-1.668.037-.022.059-.048a1.524,1.524,0,1,1,1.793,2.465l-.07.048-.037.03-2.284,1.66a.594.594,0,0,1-.369.118.613.613,0,0,1-.491-.251.587.587,0,0,1-.114-.306l-.915.664A.579.579,0,0,1,78.607,106.783Z" transform="translate(-4196.252 798.953)" fill="#fff"/>
    <path id="Path_307163" data-name="Path 307163" d="M81.978,101.8a1.339,1.339,0,0,1,.79,2.417l-.077.048-.033.03-2.284,1.66a.4.4,0,0,1-.244.081.432.432,0,0,1-.343-.173.421.421,0,0,1,.1-.587l1.181-.863-.07-.048h-.022l-2.469,1.8a.436.436,0,0,1-.247.077.413.413,0,0,1-.339-.173.421.421,0,0,1,.092-.587l2.472-1.793-.022-.085-1.184.863a.428.428,0,0,1-.247.077.413.413,0,0,1-.339-.173.421.421,0,0,1,.092-.587l2.284-1.66.041-.022.066-.055a1.343,1.343,0,0,1,.79-.255m0-.369a1.683,1.683,0,0,0-1,.325l-.063.052-.048.026-2.284,1.664a.79.79,0,0,0-.173,1.107.572.572,0,0,0,.089.1l-.7.513a.792.792,0,0,0,.465,1.432.778.778,0,0,0,.465-.151l.7-.509a.532.532,0,0,0,.07.114.79.79,0,0,0,.638.325.8.8,0,0,0,.461-.151l2.284-1.66.044-.037.063-.044a1.708,1.708,0,0,0-1-3.089Z" transform="translate(-4195.9 799.287)" fill="#40017e"/>
    <path id="Path_307164" data-name="Path 307164" d="M88.9,105.369a.779.779,0,1,1,.322-.517A.779.779,0,0,1,88.9,105.369Z" transform="translate(-4202.357 797.689)" fill="#9e91ff"/>
  </g>
</svg>
