<svg xmlns="http://www.w3.org/2000/svg" width="27" height="27" viewBox="0 0 27 27">
  <path id="Quests_Icon" data-name="Quests Icon" d="M19.646.247l-6.083,3.39L13.5,3.6l-.063.034L7.354.247A1.921,1.921,0,0,0,5.293.36a1.969,1.969,0,0,0-.8,1.917L5.686,9.638.552,14.945a1.965,1.965,0,0,0,1.1,3.306l7.006,1.078L11.7,25.874A1.946,1.946,0,0,0,13.462,27c.012,0,.026,0,.039,0s.026,0,.039,0A1.948,1.948,0,0,0,15.3,25.874l3.045-6.545,7.006-1.078a1.964,1.964,0,0,0,1.1-3.306L21.315,9.638l1.191-7.361a1.968,1.968,0,0,0-.8-1.917A1.923,1.923,0,0,0,19.646.247ZM14.877,5.995l4.718-2.628-.945,5.84-.216,1.335.942.973L23.519,15.8l-5.585.859-1.428.22L15.9,18.19,13.5,23.338,11.1,18.19l-.609-1.31-1.428-.22L3.48,15.8l4.146-4.286.94-.973L8.35,9.207l-.944-5.84,4.717,2.628,1.3.727.075-.04.074.04Zm-.027,6.154v2.7h2.7v-2.7Zm-5.4,0v2.7h2.7v-2.7Z" transform="translate(27 27) rotate(180)" fill="#f5de0e"/>
</svg>
