<svg xmlns="http://www.w3.org/2000/svg" width="26.999" height="27" viewBox="0 0 26.999 27">
  <g id="Group_18341" data-name="Group 18341" transform="translate(-724 -39.999)">
    <path id="Op_component_1" data-name="Op component 1" d="M878.8,48.9a8.1,8.1,0,1,0-8.1-8.1,8.109,8.109,0,0,0,8.1,8.1m0,2.7a10.8,10.8,0,1,1,10.8-10.8,10.8,10.8,0,0,1-10.8,10.8Z" transform="translate(1619 91.598) rotate(180)" fill="#656565"/>
    <path id="Op_component_2" data-name="Op component 2" d="M889.668,48.555l-4.23,4.232a12.149,12.149,0,0,0-1.5-2.314l3.824-3.826a1.122,1.122,0,0,0-1.586-1.587l-3.826,3.825a12.154,12.154,0,0,0-2.313-1.5l4.23-4.231a3.821,3.821,0,1,1,5.4,5.4Z" transform="translate(1614.788 109.031) rotate(180)" fill="#656565"/>
  </g>
</svg>
