<svg xmlns="http://www.w3.org/2000/svg" width="26.999" height="26.999" viewBox="0 0 26.999 26.999">
  <path id="Toogle_Side_Menu_Icon" data-name="Toogle Side Menu Icon" d="M25,27H16.849a2,2,0,0,1-2-2V16.849a2,2,0,0,1,2-2H25a2,2,0,0,1,2,2V25A2,2,0,0,1,25,27Zm-7.449-9.45V24.3H24.3v-6.75ZM10.149,27H2a2,2,0,0,1-2-2V16.849a2,2,0,0,1,2-2h8.149a2,2,0,0,1,2,2V25A2,2,0,0,1,10.149,27ZM2.7,17.549V24.3h6.75v-6.75Zm22.3-5.4H16.849a2,2,0,0,1-2-2V2a2,2,0,0,1,2-2H25a2,2,0,0,1,2,2v8.149A2,2,0,0,1,25,12.149ZM17.549,2.7v6.75H24.3V2.7Zm-7.4,9.45H2a2,2,0,0,1-2-2V2A2,2,0,0,1,2,0h8.149a2,2,0,0,1,2,2v8.149A2,2,0,0,1,10.149,12.149ZM2.7,2.7v6.75h6.75V2.7Z" transform="translate(26.999 26.999) rotate(180)" fill="#656565"/>
</svg>
