<svg xmlns="http://www.w3.org/2000/svg" width="27" height="27" viewBox="0 0 27 27">
  <path id="Events_Icon" data-name="Events Icon" d="M5.4,0A5.4,5.4,0,0,0,0,5.4V18.9a5.4,5.4,0,0,0,5.4,5.4H6.75V27h2.7V24.3h8.1V27h2.7V24.3H21.6A5.4,5.4,0,0,0,27,18.9V16.2h0V13.5h0V5.4A5.4,5.4,0,0,0,21.6,0ZM2.7,5.4A2.7,2.7,0,0,1,5.4,2.7H21.6a2.7,2.7,0,0,1,2.7,2.7v8.1H2.7ZM24.3,16.2v2.7a2.7,2.7,0,0,1-2.7,2.7H20.25V18.9h-2.7v2.7H9.45V18.9H6.75v2.7H5.4a2.7,2.7,0,0,1-2.7-2.7V16.2Z" transform="translate(27 27) rotate(180)" fill="#e9e9e9"/>
</svg>
