<svg xmlns="http://www.w3.org/2000/svg" width="27" height="27" viewBox="0 0 27 27">
  <path id="Forums_Icon" data-name="Forums Icon" d="M8.1,5.4H5.4C2.418,5.4,0,7.549,0,10.2v12C0,24.851,2.418,27,5.4,27H21.6c2.982,0,5.4-2.149,5.4-4.8v-12c0-2.651-2.418-4.8-5.4-4.8H18.9L13.5,0ZM2.7,10.2c0-1.138,1.236-2.1,2.7-2.1H9.22l.79-.791L13.5,3.818l3.492,3.491.791.791H21.6c1.463,0,2.7.962,2.7,2.1v6H2.7Zm0,12V18.9H24.3v3.3c0,1.138-1.237,2.1-2.7,2.1H5.4C3.937,24.3,2.7,23.338,2.7,22.2Zm10.8-1.951v2.7h2.7v-2.7Zm-4.05,0v2.7h2.7v-2.7Zm-4.05,0v2.7H8.1v-2.7Z" transform="translate(27 27) rotate(180)" fill="#e9e9e9"/>
</svg>
