<svg xmlns="http://www.w3.org/2000/svg" width="27" height="27" viewBox="0 0 27 27">
  <path id="Groups_Icon" data-name="Groups Icon" d="M22.95,0V2.7a5.407,5.407,0,0,1-5.4,5.4H9.45a5.407,5.407,0,0,1-5.4-5.4V0H1.35V2.7a8.1,8.1,0,0,0,8.1,8.1h8.1a8.1,8.1,0,0,0,8.1-8.1V0ZM21.534,18.9A5.467,5.467,0,0,0,27,24.367v-2.7a2.768,2.768,0,0,1,0-5.536v-2.7A5.467,5.467,0,0,0,21.534,18.9ZM0,16.132A2.892,2.892,0,0,1,2.768,18.9,2.891,2.891,0,0,1,0,21.667v2.7A5.684,5.684,0,0,0,5.468,18.9,5.683,5.683,0,0,0,0,13.433Zm6.751,4.118A6.75,6.75,0,1,0,13.5,13.5,6.75,6.75,0,0,0,6.751,20.249Zm2.7,0A4.05,4.05,0,1,1,13.5,24.3,4.054,4.054,0,0,1,9.45,20.249Z" transform="translate(27 27) rotate(180)" fill="#e9e9e9"/>
</svg>
