<svg xmlns="http://www.w3.org/2000/svg" width="27" height="27" viewBox="0 0 27 27">
  <path id="Marketplace_Icon" data-name="Marketplace Icon" d="M5.4,0A2.7,2.7,0,0,0,2.7,2.7L1.35,10.8h0v.36A2.7,2.7,0,0,0,0,13.5v2.7a2.7,2.7,0,0,0,2.7,2.7h.675L5.4,27h5.4V24.3H7.509l-1.35-5.4H20.842l-1.35,5.4H16.2V27h5.4l2.025-8.1H24.3A2.7,2.7,0,0,0,27,16.2V13.5a2.7,2.7,0,0,0-1.35-2.34V10.8L24.3,2.7A2.7,2.7,0,0,0,21.6,0ZM5.363,3.144,5.4,2.922V2.7H21.6v.225l.036.22L22.914,10.8H4.089ZM2.7,13.5H24.3v2.7H2.7ZM24.3,16.2Z" transform="translate(27 27) rotate(180)" fill="#e9e9e9"/>
</svg>
