<svg xmlns="http://www.w3.org/2000/svg" width="27" height="27" viewBox="0 0 27 27">
  <path id="Messages_Icon" data-name="Messages Icon" d="M16.2,2.7H10.8a5.388,5.388,0,0,0-5.209,4.05H8.476A2.693,2.693,0,0,1,10.8,5.4h5.732l.322-.081L24.3,3.458V14.85a2.694,2.694,0,0,1-1.351,2.326V20.06A5.389,5.389,0,0,0,27,14.85V0ZM0,14.85V21.6A5.4,5.4,0,0,0,5.4,27H16.2a5.4,5.4,0,0,0,5.4-5.4V14.85a5.4,5.4,0,0,0-5.4-5.4H10.8L0,6.751ZM2.7,21.6V10.209l7.445,1.861.322.08H16.2a2.7,2.7,0,0,1,2.7,2.7V21.6a2.7,2.7,0,0,1-2.7,2.7H5.4A2.7,2.7,0,0,1,2.7,21.6ZM6.688,14.85A1.287,1.287,0,0,0,5.4,16.137v.128A1.285,1.285,0,0,0,6.688,17.55h5.526A1.285,1.285,0,0,0,13.5,16.264v-.128a1.286,1.286,0,0,0-1.287-1.287ZM6.734,18.9A1.333,1.333,0,0,0,5.4,20.235v.033A1.333,1.333,0,0,0,6.734,21.6h8.135A1.334,1.334,0,0,0,16.2,20.268v-.033A1.334,1.334,0,0,0,14.868,18.9Z" transform="translate(27 27) rotate(180)" fill="#e9e9e9"/>
</svg>
