<svg xmlns="http://www.w3.org/2000/svg" width="24.232" height="26.892" viewBox="0 0 24.232 26.892">
  <path id="Notifications_Icon" data-name="Notifications Icon" d="M9.887.53A4.185,4.185,0,0,0,8.278,1.946,1.3,1.3,0,0,0,8.873,3.84a1.732,1.732,0,0,0,2.178-.517,1.184,1.184,0,0,1,.451-.4,1.4,1.4,0,0,1,.927-.111,1.233,1.233,0,0,1,.762.513,1.729,1.729,0,0,0,2.179.513,1.3,1.3,0,0,0,.589-1.895A4.385,4.385,0,0,0,13.246.129,5.015,5.015,0,0,0,12.112,0,4.869,4.869,0,0,0,9.887.53ZM1.347,5.375a1.352,1.352,0,0,0-1.288.98A1.412,1.412,0,0,0,.593,7.914c.011.008,3,2.348,3,10.095a8.722,8.722,0,0,0,8.53,8.883,8.723,8.723,0,0,0,8.531-8.883c0-7.748,2.988-10.086,3.018-10.11a1.43,1.43,0,0,0,.5-1.559A1.349,1.349,0,0,0,22.9,5.375ZM6.285,18.008c0-4.845-1.071-7.961-2.131-9.857H20.09c-1.059,1.9-2.131,5.012-2.131,9.857a5.984,5.984,0,0,1-5.838,6.107A5.983,5.983,0,0,1,6.285,18.008Z" transform="translate(24.232 26.892) rotate(180)" fill="#e9e9e9"/>
</svg>
