<svg xmlns="http://www.w3.org/2000/svg" width="27" height="27" viewBox="0 0 27 27">
  <path id="Overview_Icon" data-name="Overview Icon" d="M21.6,0a2.7,2.7,0,0,0-2.7,2.7V16.2a2.7,2.7,0,0,0,2.7,2.7h2.7A2.7,2.7,0,0,0,27,16.2V2.7A2.7,2.7,0,0,0,24.3,0Zm0,2.7h2.7V16.2H21.6ZM12.15,0a2.7,2.7,0,0,0-2.7,2.7V24.3a2.7,2.7,0,0,0,2.7,2.7h2.7a2.7,2.7,0,0,0,2.7-2.7V2.7a2.7,2.7,0,0,0-2.7-2.7Zm0,2.7h2.7V24.3h-2.7ZM2.7,0A2.7,2.7,0,0,0,0,2.7V8.1a2.7,2.7,0,0,0,2.7,2.7H5.4A2.7,2.7,0,0,0,8.1,8.1V2.7A2.7,2.7,0,0,0,5.4,0Zm0,2.7H5.4V8.1H2.7Z" transform="translate(27 27) rotate(180)" fill="#e9e9e9"/>
</svg>
