<svg xmlns="http://www.w3.org/2000/svg" width="54.961" height="61.57" viewBox="0 0 54.961 61.57">
  <g id="layer1" transform="translate(-4.031 -1018.362)">
    <g id="g7096" transform="translate(4.031 1018.362)">
      <g id="g4088" transform="translate(0 0)">
        <g id="g4090" transform="translate(0)">
          <path id="rect4333" d="M29.613,2a6.632,6.632,0,0,0-4.63,11.4H21.837a4.613,4.613,0,0,0-4.57,4.333L5.456,11.022a.958.958,0,0,0-1.424.831V45.506a.95.95,0,0,0,1.424.831L17.267,39.63a4.607,4.607,0,0,0,4.57,4.1h2.968v2.908a.95.95,0,0,0,.95.95h6.529L27.12,62.244A.95.95,0,1,0,28.9,62.9l5.342-15.313h9.615L49.971,62.9a.95.95,0,1,0,1.781-.653l-5.817-14.66H52.4a.95.95,0,0,0,.95-.95V43.726h1.009a4.638,4.638,0,0,0,4.63-4.63V18.025a4.638,4.638,0,0,0-4.63-4.63H51.277a6.648,6.648,0,1,0-9.259,0H34.242A6.632,6.632,0,0,0,29.613,2Zm0,1.9a4.748,4.748,0,1,1-4.748,4.748A4.734,4.734,0,0,1,29.613,3.9Zm17.035,0A4.748,4.748,0,1,1,41.9,8.648,4.734,4.734,0,0,1,46.647,3.9ZM5.931,13.515l11.218,6.351V37.493L5.931,43.844ZM21.837,15.3H54.363a2.7,2.7,0,0,1,2.73,2.73V39.1a2.7,2.7,0,0,1-2.73,2.73H21.837a2.7,2.7,0,0,1-2.73-2.73V18.025A2.7,2.7,0,0,1,21.837,15.3ZM26.7,43.726h24.75v1.959H26.7Z" transform="translate(-4.031 -2)" fill="#ffbe58"/>
        </g>
      </g>
    </g>
  </g>
</svg>
