<svg xmlns="http://www.w3.org/2000/svg" width="64" height="48.89" viewBox="0 0 64 48.89">
  <g id="Group_17931" data-name="Group 17931" transform="translate(-3.957 -19.5)">
    <path id="Path_306836" data-name="Path 306836" d="M67.9,31.253a5.087,5.087,0,0,0-2.147-3.435l-12.29-7.3a8.3,8.3,0,0,0-4.025-1.02,6.024,6.024,0,0,0-2.039.322L5.8,36.512c-1.664.644-2.308,2.9-1.5,4.83l9.821,24.472a3.931,3.931,0,0,0,3.435,2.576,2.326,2.326,0,0,0,1.02-.215L60.115,51.432a7.78,7.78,0,0,0,3.918-4.669l3.81-13.47h0A5.761,5.761,0,0,0,67.9,31.253Zm-2.147,1.61L61.94,46.226a5.43,5.43,0,0,1-2.63,3.22L17.772,66.19c-.054,0-.107.054-.215.054a1.881,1.881,0,0,1-1.449-1.234L6.288,40.537a1.659,1.659,0,0,1,.322-1.986L48.148,21.808a3.819,3.819,0,0,1,1.234-.161,6.309,6.309,0,0,1,2.952.7l12.29,7.3a2.881,2.881,0,0,1,1.127,1.825A5.662,5.662,0,0,1,65.75,32.863Z" fill="#e0474e"/>
    <path id="Path_306837" data-name="Path 306837" d="M91.011,38.3a6.011,6.011,0,1,0,6.011,6.011A6,6,0,0,0,91.011,38.3Zm0,9.928a3.864,3.864,0,1,1,3.864-3.864A3.882,3.882,0,0,1,91.011,48.228Z" transform="translate(-37.55 -8.711)" fill="#e0474e"/>
    <path id="Path_306838" data-name="Path 306838" d="M27.548,65.908a.469.469,0,0,1-.483-.322.516.516,0,0,1,.322-.7l23.077-9.123a.543.543,0,1,1,.376,1.02L27.763,65.908C27.656,65.855,27.6,65.908,27.548,65.908Z" transform="translate(-10.688 -16.784)" fill="#e0474e"/>
    <path id="Path_306839" data-name="Path 306839" d="M30.548,73.508a.469.469,0,0,1-.483-.322.516.516,0,0,1,.322-.7l23.077-9.123a.543.543,0,0,1,.376,1.02L30.763,73.508Z" transform="translate(-12.078 -20.306)" fill="#e0474e"/>
    <path id="Path_306840" data-name="Path 306840" d="M33.548,81.208a.469.469,0,0,1-.483-.322.516.516,0,0,1,.322-.7l23.077-9.123a.543.543,0,0,1,.376,1.02L33.763,81.208Z" transform="translate(-13.468 -23.873)" fill="#e0474e"/>
    <path id="Path_306841" data-name="Path 306841" d="M23.548,58.208a.469.469,0,0,1-.483-.322.516.516,0,0,1,.322-.7l23.077-9.123a.543.543,0,1,1,.376,1.02L23.763,58.208Z" transform="translate(-8.835 -13.217)" fill="#e0474e"/>
  </g>
</svg>
