<svg xmlns="http://www.w3.org/2000/svg" width="48.449" height="55.378" viewBox="0 0 48.449 55.378">
  <g id="Group_17930" data-name="Group 17930" transform="translate(-8)">
    <path id="Path_306834" data-name="Path 306834" d="M54.057,20.188H50.631a18.752,18.752,0,0,0-2.539-6.117l2.427-2.427a2.555,2.555,0,0,0-.212-3.595l-1.9-1.9a2.846,2.846,0,0,0-1.994-.865,2.241,2.241,0,0,0-1.6.645L42.377,8.353a18.735,18.735,0,0,0-6.121-2.535V2.392A2.545,2.545,0,0,0,33.57,0H30.883a2.556,2.556,0,0,0-2.695,2.392v3.43a18.726,18.726,0,0,0-6.117,2.535L19.645,5.931a2.241,2.241,0,0,0-1.6-.645,2.851,2.851,0,0,0-1.994.865l-1.9,1.895a2.555,2.555,0,0,0-.216,3.595l2.431,2.427a18.744,18.744,0,0,0-2.535,6.117h-3.43A2.558,2.558,0,0,0,8,22.879v2.686a2.556,2.556,0,0,0,2.392,2.695h3.43a18.774,18.774,0,0,0,2.535,6.117L13.926,36.8a2.551,2.551,0,0,0,.216,3.595l.143.143a17.085,17.085,0,0,1,1.575-.865l-.506-.5a.865.865,0,0,1-.216-1.146l3.43-3.426-.748-1.172a17.018,17.018,0,0,1-2.3-5.554l-.3-1.363H10.392c-.311,0-.662-.394-.662-.965V22.879c0-.567.35-.965.662-.965h4.823l.3-1.363A16.974,16.974,0,0,1,17.815,15l.753-1.155-3.413-3.409A.549.549,0,0,1,15.021,10a1.142,1.142,0,0,1,.333-.731l1.912-1.916a1.12,1.12,0,0,1,.77-.35.515.515,0,0,1,.381.138l3.426,3.426,1.172-.753a16.961,16.961,0,0,1,5.554-2.3l1.363-.3V2.392c0-.311.4-.662.965-.662h2.686c.567,0,.965.35.965.662V7.215l1.363.3a16.97,16.97,0,0,1,5.554,2.3l1.142.748,3.409-3.409a.515.515,0,0,1,.381-.138,1.12,1.12,0,0,1,.77.35l1.9,1.9a.865.865,0,0,1,.212,1.151l-3.4,3.422.753,1.172a16.974,16.974,0,0,1,2.306,5.554l.3,1.363h4.819c.316,0,.662.394.662.965v2.686c0,.567-.35.965-.662.965H49.233l-.3,1.363a17.022,17.022,0,0,1-2.306,5.554l-.748,1.142,3.413,3.409a.865.865,0,0,1-.212,1.151l-.549.549a16.871,16.871,0,0,1,1.562.865l.212-.212a2.555,2.555,0,0,0,.212-3.595l-2.427-2.427a18.778,18.778,0,0,0,2.539-6.117h3.426a2.559,2.559,0,0,0,2.392-2.695V22.879A2.554,2.554,0,0,0,54.057,20.188ZM34.249,41.251a8.448,8.448,0,0,1-1.73.26l.662,2.955-2.31,1.618,1.068-4.555a8.9,8.9,0,0,1-1.73-.2l-2.245,9.716a1.947,1.947,0,0,0,.766,2.037l1.73,1.817a.865.865,0,0,0,.16.134,3.158,3.158,0,0,0,1.583.342,3.322,3.322,0,0,0,1.445-.268.865.865,0,0,0,.173-.125l1.821-1.691a1.886,1.886,0,0,0,.865-2.016ZM29.7,51.222,30.3,48.6l3.3-2.314.407,1.813a.865.865,0,0,0-.134.078Zm4.992.606a.865.865,0,0,0-.173.125L32.743,53.6a3.461,3.461,0,0,1-1.155,0l-.9-.952,3.733-2.717.394,1.73h0a.3.3,0,0,1-.13.169Z" transform="translate(0)" fill="#934bff"/>
    <path id="Path_306835" data-name="Path 306835" d="M28.363,55.73c-.13-.156-.26-.316-.385-.476a4.728,4.728,0,0,1-2.963,1.934c-.433.065-10.421,1.7-10.936,9.443v.052c0,.017,0,.433-.069,5.316a.865.865,0,1,0,1.73,0c.061-4.326.069-5.156.069-5.3.433-6.342,9.383-7.812,9.486-7.825a6.324,6.324,0,0,0,3.85-2.314,10.087,10.087,0,0,1-.783-.826ZM46.1,57.193a4.845,4.845,0,0,1-3.115-2.163,15.765,15.765,0,0,1-1.194,1.3,6.419,6.419,0,0,0,4.032,2.535c.091,0,9.05,1.471,9.473,7.847a1.024,1.024,0,0,0,0,.112,35.421,35.421,0,0,1,.225,5.234.865.865,0,1,0,1.73,0A37.136,37.136,0,0,0,57,66.545C56.459,58.88,46.51,57.253,46.1,57.193Zm-.082-10.222c.8,0,1.376-.268,1.3-1.025L47.2,43.181c-.082-.748-.03-1.371-.662-1.371h-.567s.658-4.689-4.611-8.3c0,0-.908-2.275-2.634-2.513H32.546c-1.73.234-2.634,2.513-2.634,2.513-5.273,3.608-4.616,8.3-4.616,8.3h-.532c-.658,0-.6.614-.683,1.371l-.125,2.756c-.082.757.5,1.025,1.3,1.025h.792A17.818,17.818,0,0,0,29.674,54.6,7.73,7.73,0,0,0,35.5,57.387a6.7,6.7,0,0,0,4.36-1.6,17.771,17.771,0,0,0,5.264-8.816ZM36.932,32.73,36.5,34.893H34.8l-.433-2.163ZM36.5,40.517a.865.865,0,1,1-.865-.865A.865.865,0,0,1,36.5,40.517Zm2.245,13.946A4.979,4.979,0,0,1,35.5,55.657a5.97,5.97,0,0,1-4.507-2.163,15.858,15.858,0,0,1-3.028-5.922l1.614.731H41.691l1.419-.658A15.765,15.765,0,0,1,38.745,54.463Zm5.446-9.223-2.885,1.332H29.963L27.083,45.24H25.724l.074-1.7h1.488l-.277-1.973c0-.035-.459-3.66,3.893-6.631l.433-.3.195-.489a3.05,3.05,0,0,1,1.077-1.384,2.021,2.021,0,0,0,0,.216l.51,2.457a1.423,1.423,0,0,0,1.389,1.181h.264v1.449a2.6,2.6,0,1,0,1.73,0V36.624h.268a1.423,1.423,0,0,0,1.354-1.181l.51-2.457a1.971,1.971,0,0,0,0-.216,3.028,3.028,0,0,1,1.1,1.38l.225.493.433.3c4.252,2.911,3.893,6.489,3.893,6.631l-.355,1.973h1.544l.074,1.7Z" transform="translate(-3.41 -17.59)" fill="#934bff"/>
  </g>
</svg>
