<svg xmlns="http://www.w3.org/2000/svg" width="71.327" height="69.414" viewBox="0 0 71.327 69.414">
  <g id="Group_17933" data-name="Group 17933" transform="translate(-717 -1675.18)">
    <path id="Path_306847" data-name="Path 306847" d="M23.588,61.453a.841.841,0,0,0,.538-.021c1.148-.44,2.455.161,3.839.8.279.129.557.257.834.376a10.372,10.372,0,0,0,4.06,1.118,5.19,5.19,0,0,0,2.91-.893c.162-.106.33-.223.5-.345a4.646,4.646,0,0,1,2.015-1,4.789,4.789,0,0,1,1.413.535l.136.069c1.262.645,2.991,1.529,4.686.537s1.833-3.018,1.8-4.46l0-.151a17.379,17.379,0,0,0-.134-2.057c-.063-.434-.141-.867-.22-1.3-.042-.231-.078-.463-.118-.695H48.5c-.039.231-.075.462-.117.693-.078.433-.157.866-.22,1.3A17.281,17.281,0,0,0,48.03,58l0,.163c-.037,1.442.109,3.473,1.8,4.46s3.427.109,4.691-.537l.135-.069a4.664,4.664,0,0,1,1.4-.536h.022a4.651,4.651,0,0,1,2.018,1c.175.122.343.239.5.345a5.2,5.2,0,0,0,2.913.892,10.4,10.4,0,0,0,4.064-1.117c1.62-.7,3.638-1.573,5.074-1.021a.974.974,0,0,0,1.145-.469,34.253,34.253,0,0,0,2.557-13.3C74.344,32.479,62.155,20,47.172,20S20,32.479,20,47.817c0,5.044,1.114,9.987,2.979,13.224A.845.845,0,0,0,23.588,61.453Zm20.827-9.185c-.182-.456-.377-.942-.489-1.206l-.538-1.275-1.357.27a4,4,0,0,0-2.693,2.025,7.358,7.358,0,0,0-.473.931,11.116,11.116,0,0,1-.048-3.762,5.2,5.2,0,0,1,2.347-3.832l.972-.542-.109-1.107a20.5,20.5,0,0,1-.068-3.221,16.061,16.061,0,0,1,5.23-11.164,16.056,16.056,0,0,1,5.229,11.165,20.434,20.434,0,0,1-.072,3.244l-.109,1.1.962.545A5.273,5.273,0,0,1,55.55,49.4a11.249,11.249,0,0,1-.072,3.614,7.283,7.283,0,0,0-.517-1,3.68,3.68,0,0,0-2.745-1.971l-1.268-.151-.5,1.176c-.112.264-.308.75-.489,1.207ZM47.172,21.7c14.046,0,25.474,11.717,25.474,26.118A33.537,33.537,0,0,1,70.516,59.8c-1.891-.357-3.938.526-5.622,1.253-2.221.96-3.691,1.464-5.374.363-.148-.1-.3-.205-.464-.317a5.876,5.876,0,0,0-2.9-1.3,5.062,5.062,0,0,0-2.312.738l-.1.05c-1.269.647-2.231,1.069-3.062.583-.695-.406-1-1.343-.957-2.95l0-.164a16.039,16.039,0,0,1,.117-1.845c.06-.415.135-.828.21-1.241.06-.332.115-.664.168-1h.892s.661-1.68.9-2.243c.677.081,1.063.477,1.508,1.187a11.806,11.806,0,0,1,1.309,4.416l.13.91c.038.266.119.4.218.4s.191-.107.289-.323l.377-.832a15.024,15.024,0,0,0,1.382-8.344,6.945,6.945,0,0,0-3.192-5.176,22.069,22.069,0,0,0,.078-3.514,17.926,17.926,0,0,0-6.588-13.028l-.168-.141a.27.27,0,0,0-.337,0l-.168.141a17.929,17.929,0,0,0-6.588,13.028,22.133,22.133,0,0,0,.073,3.489,6.878,6.878,0,0,0-3.194,5.027A14.912,14.912,0,0,0,38.5,57.481l.378.832c.1.216.2.323.289.323s.181-.135.218-.4l.13-.91a12.024,12.024,0,0,1,1.276-4.362,2.338,2.338,0,0,1,1.573-1.241c.238.563.9,2.244.9,2.244h.86c.053.333.108.666.169,1,.075.412.15.824.21,1.238a16.15,16.15,0,0,1,.117,1.856l0,.152c.041,1.607-.262,2.545-.956,2.95-.828.486-1.789.064-3.056-.583l-.137-.07a5,5,0,0,0-2.27-.718,5.867,5.867,0,0,0-2.9,1.3c-.16.112-.315.22-.463.317-1.68,1.1-3.147.6-5.364-.363-.265-.115-.531-.238-.8-.361-1.38-.636-2.923-1.347-4.512-1.029-1.809-3.5-2.466-8.349-2.466-11.843,0-14.4,11.428-26.118,25.474-26.118Z" transform="translate(705.491 1662.606)" fill="#fe5c5c"/>
    <path id="Path_306848" data-name="Path 306848" d="M47.172,24.38c-1.429,0-2.548,1.492-2.548,3.4s1.119,3.4,2.548,3.4,2.547-1.492,2.547-3.4S48.6,24.38,47.172,24.38Zm0,5.095c-.346,0-.85-.662-.85-1.7s.5-1.7.85-1.7.849.662.849,1.7-.5,1.7-.849,1.7ZM44.821,56.1c-1.448,1.733-2.531,1.3-4.028.7a5.819,5.819,0,0,0-2.363-.579,7.621,7.621,0,0,0-3.394,1.161c-.207.111-.413.222-.622.328-2.187,1.112-4.144.593-6.881-.326l-.3-.1c-2.125-.717-4.323-1.459-6.622-.774a.849.849,0,1,0,.486,1.628c1.781-.532,3.633.093,5.594.755l.307.1A15.182,15.182,0,0,0,31.8,60.042a7.324,7.324,0,0,0,3.381-.811c.221-.112.439-.23.658-.347a6.239,6.239,0,0,1,2.655-.96,4.8,4.8,0,0,1,1.668.459c1.571.627,3.724,1.486,5.961-1.192a.849.849,0,1,0-1.3-1.089Zm22.294,1.186-.305.1c-2.736.919-4.693,1.438-6.881.326-.209-.106-.415-.217-.622-.328a7.622,7.622,0,0,0-3.394-1.161,5.748,5.748,0,0,0-2.363.579c-1.5.6-2.58,1.029-4.028-.7a.849.849,0,0,0-1.3,1.089c2.237,2.678,4.39,1.82,5.961,1.192a4.834,4.834,0,0,1,1.668-.459,6.239,6.239,0,0,1,2.656.96c.218.117.437.235.657.347a7.321,7.321,0,0,0,3.382.811A15.172,15.172,0,0,0,67.35,59l.308-.1c1.961-.662,3.813-1.287,5.593-.755a.849.849,0,1,0,.486-1.628C71.439,55.83,69.241,56.571,67.115,57.288ZM74.344,8.67A1.274,1.274,0,1,0,73.07,7.4,1.274,1.274,0,0,0,74.344,8.67Zm0-1.911a.637.637,0,1,1-.637.637A.637.637,0,0,1,74.344,6.76ZM47.6,6.547a1.274,1.274,0,1,0-1.274-1.274A1.274,1.274,0,0,0,47.6,6.547Zm0-1.911a.637.637,0,1,1-.637.637A.637.637,0,0,1,47.6,4.637ZM73.919,21.832a.849.849,0,1,0-.849-.849A.849.849,0,0,0,73.919,21.832Zm0-1.274a.425.425,0,1,1-.425.425.425.425,0,0,1,.425-.425ZM32.736,13.34a.849.849,0,1,0-.849-.849A.849.849,0,0,0,32.736,13.34Zm0-1.274a.425.425,0,1,1-.425.425A.425.425,0,0,1,32.736,12.067ZM20.849,21.832A.849.849,0,1,0,20,20.983.849.849,0,0,0,20.849,21.832Zm0-1.274a.425.425,0,1,1-.425.425.425.425,0,0,1,.425-.425Z" transform="translate(705.492 1671.814)" fill="#fe5c5c"/>
    <circle id="Ellipse_1951" data-name="Ellipse 1951" cx="0.849" cy="0.849" r="0.849" transform="translate(717 1736.526)" fill="#fe5c5c"/>
    <path id="Path_306849" data-name="Path 306849" d="M8.123,147H6.849a.849.849,0,1,0,0,1.7H8.123a.849.849,0,1,0,0-1.7Zm63.26,0H70.109a.849.849,0,1,0,0,1.7h1.274a.849.849,0,1,0,0-1.7Z" transform="translate(713.547 1589.526)" fill="#fe5c5c"/>
    <circle id="Ellipse_1952" data-name="Ellipse 1952" cx="0.849" cy="0.849" r="0.849" transform="translate(786.629 1736.526)" fill="#fe5c5c"/>
    <path id="Path_306850" data-name="Path 306850" d="M72.622,141.822H62.494c.681-.183,1.343-.4,1.981-.617l.308-.1c1.961-.662,3.813-1.287,5.593-.755a.849.849,0,0,0,.486-1.628c-2.3-.685-4.5.056-6.622.773l-.305.1c-2.736.919-4.693,1.438-6.881.326-.209-.106-.415-.217-.622-.328a7.622,7.622,0,0,0-3.394-1.161,5.722,5.722,0,0,0-2.363.579c-1.5.6-2.58,1.03-4.028-.7a.849.849,0,1,0-1.3,1.089c2.237,2.678,4.39,1.82,5.961,1.192a4.871,4.871,0,0,1,1.668-.459,6.239,6.239,0,0,1,2.656.96c.218.117.437.235.657.347a7.66,7.66,0,0,0,.9.387H31.408a7.67,7.67,0,0,0,.9-.387c.221-.112.439-.23.658-.348a6.239,6.239,0,0,1,2.655-.96,4.751,4.751,0,0,1,1.668.459c1.571.627,3.724,1.486,5.961-1.192a.849.849,0,1,0-1.3-1.089c-1.448,1.734-2.531,1.3-4.028.7a5.8,5.8,0,0,0-2.363-.579,7.621,7.621,0,0,0-3.394,1.161c-.207.111-.413.222-.622.328-2.187,1.112-4.144.593-6.881-.326l-.3-.1c-2.125-.717-4.323-1.459-6.622-.774a.849.849,0,1,0,.486,1.628c1.781-.532,3.633.093,5.594.755l.307.1c.638.214,1.3.433,1.98.617H15.968a.856.856,0,1,0,0,1.7H72.622a.856.856,0,1,0,0-1.7Z" transform="translate(708.368 1594.705)" fill="#fe5c5c"/>
    <path id="Path_306851" data-name="Path 306851" d="M78.849,83.7h3.4a.849.849,0,0,0,0-1.7h-3.4a.849.849,0,1,0,0,1.7Z" transform="translate(672.116 1626.929)" fill="#0bceb2"/>
    <path id="Path_306852" data-name="Path 306852" d="M6.746,37.58l.631-.83-.4-.226-.405.93H6.56l-.412-.923-.405.233.625.81v.013l-.976-.126v.452l.983-.126V37.8l-.631.81.379.239.432-.937h.013l.4.93.419-.239-.638-.8v-.013l1,.12v-.452l-1,.132Z" transform="translate(713.898 1653.098)" fill="#0bceb2"/>
    <path id="Path_306853" data-name="Path 306853" d="M32.223,3.945l.363-.478-.229-.13-.234.535h-.008l-.237-.532-.234.134.36.467v.008l-.563-.073v.26l.566-.073v.008l-.364.467.218.138.249-.539h.008l.229.535.241-.138-.367-.459V4.067l.577.069v-.26l-.577.076Z" transform="translate(698.906 1672.195)" fill="#0bceb2"/>
    <path id="Path_306854" data-name="Path 306854" d="M113.516,3.757l-.619.795.371.235.424-.919h.013l.391.912.411-.234-.625-.782V3.75l.984.117V3.425l-.984.13V3.542l.619-.814-.391-.222-.4.912H113.7l-.4-.906-.4.228.613.795v.013l-.958-.124v.443l.964-.124Z" transform="translate(652.233 1672.674)" fill="#0bceb2"/>
    <path id="Path_306855" data-name="Path 306855" d="M112.574,21.56l-.534.686.32.2.366-.793h.011l.338.787.354-.2-.54-.675v-.011l.849.1v-.382l-.849.112v-.011l.534-.7-.337-.191-.343.787h-.011l-.349-.781-.343.2.529.686v.011l-.827-.107v.382l.832-.107Z" transform="translate(652.7 1662.33)" fill="#0bceb2"/>
    <path id="Path_306856" data-name="Path 306856" d="M77.785,156H74.258a.852.852,0,0,0,0,1.7h3.527a.852.852,0,0,0,0-1.7Zm-25.474,0H48.784a.852.852,0,0,0,0,1.7h3.527a.852.852,0,0,0,0-1.7Zm19.465,0H54.793a.849.849,0,1,0,0,1.7h6.768v.849H58.19a.849.849,0,0,0,0,1.7H68.8a.849.849,0,1,0,0-1.7h-3.8V157.7h6.768a.849.849,0,1,0,0-1.7Z" transform="translate(689.379 1584.348)" fill="#0bceb2"/>
  </g>
</svg>
