<svg xmlns="http://www.w3.org/2000/svg" width="52" height="66" viewBox="0 0 52 66">
  <g id="Group_17928" data-name="Group 17928" transform="translate(-8 -1)">
    <path id="Path_306829" data-name="Path 306829" d="M34.9,12.1a1.05,1.05,0,0,0-.9-.5h0a1.05,1.05,0,0,0-.9.5c-7.3,14.4-6.7,13.3-6.7,13.5V63.5A3.543,3.543,0,0,0,29.9,67h8.2a3.543,3.543,0,0,0,3.5-3.5c0-40.5.1-38.1-.2-38.5ZM34,14.8l2.2,4.3a6.641,6.641,0,0,1-4.4,0Zm-3.1,6.1a9.415,9.415,0,0,0,6.2,0L39,24.6H29Zm-2.5,5.7H33V55.5H28.4ZM39.6,63.5A1.538,1.538,0,0,1,38.1,65H29.9a1.538,1.538,0,0,1-1.5-1.5v-6H39.6Zm0-8H35V26.6h4.6Z" fill="#f51c73"/>
    <path id="Path_306830" data-name="Path 306830" d="M55.9,9.2h0A4.055,4.055,0,0,0,60,5.1a4.057,4.057,0,0,0-8-1H38.1V2a.945.945,0,0,0-1-1H31a.945.945,0,0,0-1,1V4.1H16A4.084,4.084,0,0,0,12,1,4.034,4.034,0,0,0,8,5.1a4.1,4.1,0,0,0,4,4.1h0a3.971,3.971,0,0,0,3.9-3.1h8.7A23.077,23.077,0,0,0,11.3,23H9a.945.945,0,0,0-1,1v6.1a.945.945,0,0,0,1,1h6.2a.945.945,0,0,0,1-1V24a.945.945,0,0,0-1-1H13.5A21.062,21.062,0,0,1,30,6.5V8.2a.945.945,0,0,0,1,1h6.1a.945.945,0,0,0,1-1V6.5A21.062,21.062,0,0,1,54.6,23H52.9a.945.945,0,0,0-1,1v6.1a.945.945,0,0,0,1,1H59a.945.945,0,0,0,1-1V24a.945.945,0,0,0-1-1H56.5A23.03,23.03,0,0,0,43.2,6.1H52A4.17,4.17,0,0,0,55.9,9.2ZM56,3a2.03,2.03,0,0,1,2,2.1,2.112,2.112,0,0,1-2.1,2.1h0a2.112,2.112,0,0,1-2.1-2.1A2.2,2.2,0,0,1,56,3ZM12.1,7.2h0A2.051,2.051,0,0,1,10,5.1,2.051,2.051,0,0,1,12.1,3a2.112,2.112,0,0,1,2.1,2.1A2.258,2.258,0,0,1,12.1,7.2Zm2,17.8v4.1H10V25Zm22-17.8H32V3h4.1ZM58,25v4.1H53.8V25Z" fill="#f51c73"/>
  </g>
</svg>
