<svg xmlns="http://www.w3.org/2000/svg" width="55.096" height="55.101" viewBox="0 0 55.096 55.101">
  <path id="Path_306842" data-name="Path 306842" d="M6.819,2a.985.985,0,0,0-.208.031A4.918,4.918,0,0,0,2,6.92V8.888a.984.984,0,0,0,.984.984H9.871v38.37a4.793,4.793,0,0,0,4.2,4.623.984.984,0,0,0,.715.3H26.619a2.957,2.957,0,0,0,.8,1.695l1.337,1.384a2.858,2.858,0,0,0,4.089,0L35.486,53.5l.027-.027.008-.008.288-.3H52.177A4.93,4.93,0,0,0,57.1,48.242V46.274a.984.984,0,0,0-.984-.984H49.225V39.452a.984.984,0,0,0-.019-.2l3.639-3.778.019-.023.008-.008.038-.046a.984.984,0,0,0,.189-.334l2-6.237a.984.984,0,0,0-.953-1.284v0a.984.984,0,0,0-.3.05l-4.62,1.6V6.92A4.93,4.93,0,0,0,44.306,2H6.919a.984.984,0,0,0-.1,0Zm.1,1.968A2.924,2.924,0,0,1,9.871,6.92V7.9h-5.9V6.92A2.924,2.924,0,0,1,6.919,3.968Zm3.909,0H44.306A2.924,2.924,0,0,1,47.257,6.92V30.133l-5.127,5.319H35.451a.985.985,0,1,0,0,1.968h4.781L32.646,45.29H18.726a.984.984,0,0,0-.984.984v1.968a2.952,2.952,0,1,1-5.9,0V9.045a.984.984,0,0,0,0-.323V6.92A4.872,4.872,0,0,0,10.828,3.968ZM21.577,7.9a.985.985,0,0,0,.1,1.968H37.419a.984.984,0,1,0,0-1.968H21.677a.984.984,0,0,0-.1,0Zm-5.9,5.9a.985.985,0,0,0,.1,1.968H43.322a.984.984,0,1,0,0-1.968H15.774a.984.984,0,0,0-.1,0Zm0,3.935a.985.985,0,0,0,.1,1.968H43.322a.984.984,0,1,0,0-1.968H15.774a.984.984,0,0,0-.1,0Zm0,3.935a.985.985,0,1,0,.1,1.968H43.322a.984.984,0,1,0,0-1.968H15.774a.983.983,0,0,0-.1,0Zm0,3.935a.985.985,0,0,0,.1,1.968H32.5a.984.984,0,1,0,0-1.968H15.774a.982.982,0,0,0-.1,0ZM22.3,29.564a3.618,3.618,0,0,0-2.529,1.157,8.1,8.1,0,0,0-1.53,2.267,11.3,11.3,0,0,0-1.23,4.808,5.59,5.59,0,0,0,1.437,4.128A5.42,5.42,0,0,0,22.3,43.311h0a5.418,5.418,0,0,0,3.851-1.387A5.592,5.592,0,0,0,27.592,37.8a11.307,11.307,0,0,0-1.234-4.808,8.087,8.087,0,0,0-1.526-2.267A3.627,3.627,0,0,0,22.3,29.564Zm30.33.542-.9,2.8L49.936,31.04ZM22.3,31.532h0a1.655,1.655,0,0,1,1.141.584,6.39,6.39,0,0,1,1.145,1.722A9.484,9.484,0,0,1,25.624,37.8a3.833,3.833,0,0,1-.842,2.713,3.428,3.428,0,0,1-2.483.834h0a3.428,3.428,0,0,1-2.483-.834,3.834,3.834,0,0,1-.838-2.713,9.486,9.486,0,0,1,1.038-3.958,6.385,6.385,0,0,1,1.141-1.722A1.651,1.651,0,0,1,22.3,31.532Zm25.861.5,2.64,2.736L37.473,48.6l-2.629-2.729-.012-.012Zm-.9,9.247V45.29H43.391Zm-27.548,5.98H30.751l-.6.623-.012.012-.023.027-.027.027-2.671,2.771a2.917,2.917,0,0,0-.373.477H18.484a4.773,4.773,0,0,0,1.226-2.952Zm21.787,0H55.128v.984a2.924,2.924,0,0,1-2.952,2.952H37.7Zm-8.028.015L36.1,50.006l.012.008L34.8,51.37l-2.64-2.74ZM30.8,50.044l2.64,2.744-2.014,2.087a.82.82,0,0,1-1.253,0l-1.337-1.387a1.018,1.018,0,0,1,0-1.4Z" transform="translate(-2 -1.999)" fill="#96d8d7"/>
</svg>
