<svg xmlns="http://www.w3.org/2000/svg" width="47" height="47" viewBox="0 0 47 47">
  <path id="Path_306833" data-name="Path 306833" d="M23.5,0A23.5,23.5,0,1,0,47,23.5,23.514,23.514,0,0,0,23.5,0Zm0,1.821A21.708,21.708,0,1,1,1.762,23.5,21.656,21.656,0,0,1,23.5,1.821Zm-.059,8.519-1.175.059.059,1.88L23.5,12.22l.646.059L24.2,10.4l-.7-.059Zm4.7.881-.646,1.762.352.118,1,.529.176.118,1-1.645-.235-.117-.059-.059L28.611,11.4h-.059Zm-9.87.176-1.057.529-.059.059-.646.352,1,1.645.587-.411,1-.47ZM23.5,14.1a9.4,9.4,0,1,0,9.4,9.4A9.414,9.414,0,0,0,23.5,14.1Zm9.635.529-1.351,1.234.411.47.646.881.352-.235,1.234-.764v-.059h-.059V16.1l-.7-.94L33.6,15.1Zm-19.681.352-.117.118v.059h-.059l-.705.94v.059l-.059.059-.235.411,1.586,1,.235-.411.646-.881.117-.117Zm10.046,1a7.52,7.52,0,1,1-7.52,7.52A7.506,7.506,0,0,1,23.5,15.98Zm12.631,3.877-1.821.47.235.94.118.823,1.821-.294-.118-.881V20.8Zm-25.439.47-.118.47v.118L10.4,22.09v.118l-.059.176,1.88.059.059-.118.118-1.116.117-.411ZM34.78,23.441l-.118,1.234-.059.587,1.88.235.059-.587v-.118l.118-1.234ZM12.455,25.909l-1.821.47.235,1,.059.059v.059l.294.764,1.762-.646-.294-.705Zm21.091,2.644-.176.352-.529.94-.176.176,1.528,1.116.176-.235v-.059h.059l.587-1,.059-.059v-.059l.176-.352Zm-18.8,2.056-1.528,1.116.059.118.059.059.822.881v.059h.059l.411.411,1.292-1.41-.47-.352v-.059l-.7-.764Zm15.51,1.88-.47.353-1,.587.294.529.587,1.175.059-.059h.059l1-.646h.059v-.059l.529-.352ZM18.8,33.781l-.823,1.7.352.118v.059h.059l1.116.411h.059l.059.059.294.059.47-1.821-.235-.059-1-.353-.059-.059Zm6.815.822-1,.118-.823.059.118,1.88.881-.059h.059l1-.176Z" fill="#f90808"/>
</svg>
