<svg xmlns="http://www.w3.org/2000/svg" width="49.524" height="69.414" viewBox="0 0 49.524 69.414">
  <g id="Group_17932" data-name="Group 17932" transform="translate(-546 -1667.602)">
    <path id="Path_306843" data-name="Path 306843" d="M-341.757,1174.81a1.077,1.077,0,0,0-.491.123,20.719,20.719,0,0,0-11.241,15.234l-7.4,14.709a1.084,1.084,0,0,0,.046,1.056,1.084,1.084,0,0,0,.923.514h2.837v10.17a1.084,1.084,0,0,0,1.084,1.084h8.01l1.287,11.516a1.084,1.084,0,0,0,.63.926,1.083,1.083,0,0,0,1.113-.125,1.084,1.084,0,0,0,.408-1.042l-1.389-12.478a1.084,1.084,0,0,0-1.08-.965h-7.9v-10.17a1.084,1.084,0,0,0-1.084-1.084h-2.159l6.634-13.2a1.083,1.083,0,0,0,.1-.322,18.543,18.543,0,0,1,10.132-13.882,1.084,1.084,0,0,0,.59-1.219,1.084,1.084,0,0,0-1.059-.843Zm18.214.364a1.084,1.084,0,0,0-1.067.818,1.084,1.084,0,0,0,.55,1.227,22.459,22.459,0,0,1,8.527,8.34c1.935,3.442,2.575,7.148,1.042,10.5l-2.248,4.916a1.085,1.085,0,0,0,.069,1.113,1.083,1.083,0,0,0,1.013.464,1.084,1.084,0,0,0,.887-.675l2.248-4.916c1.881-4.113,1.048-8.611-1.118-12.465a24.385,24.385,0,0,0-9.382-9.183,1.081,1.081,0,0,0-.521-.139Zm5.559,30.073a1.084,1.084,0,0,0-1,.648l-.284.614a1.085,1.085,0,0,0,.536,1.438,1.085,1.085,0,0,0,1.437-.536l.279-.614a1.085,1.085,0,0,0-.059-1.039A1.084,1.084,0,0,0-317.983,1205.247Zm-1.685,3.688a1.084,1.084,0,0,0-1.008.644l-.563,1.232-2.248,4.915a1.086,1.086,0,0,0-.093.546l1.143,12.917a1.084,1.084,0,0,0,1.175.985,1.084,1.084,0,0,0,.984-1.176l-1.118-12.634,2.13-4.653.563-1.232a1.085,1.085,0,0,0-.061-1.036,1.084,1.084,0,0,0-.9-.51Z" transform="translate(907.001 506.774)" fill="#4450f5"/>
    <path id="Path_306844" data-name="Path 306844" d="M-342.417,1170.32a10.217,10.217,0,0,0-10.14,10.259c0,3.109,1.558,5.215,2.9,7.248a12.271,12.271,0,0,1,2.54,7.431v4.416a1.084,1.084,0,0,0,1.084,1.084h7.244a1.084,1.084,0,0,0,1.084-1.084v-4.416a12.271,12.271,0,0,1,2.536-7.431c1.338-2.033,2.9-4.139,2.9-7.248A10.217,10.217,0,0,0-342.417,1170.32Zm0,2.168a8.017,8.017,0,0,1,7.972,8.091c0,2.4-1.157,3.96-2.536,6.054a15.774,15.774,0,0,0-2.693,7.54h-1.66v-5.4a1.084,1.084,0,0,0-1.084-1.084,1.084,1.084,0,0,0-1.084,1.084v5.4h-1.655a15.773,15.773,0,0,0-2.693-7.54c-1.378-2.095-2.54-3.658-2.54-6.054A8.017,8.017,0,0,1-342.417,1172.488Zm-2.536,23.854h2.367a1.1,1.1,0,0,0,.347,0h2.363v2.248h-5.076Z" transform="translate(916.861 501.531)" fill="#ffa30b"/>
    <path id="Path_306845" data-name="Path 306845" d="M-348.523,1185.36a1.084,1.084,0,0,0-1.084,1.084,1.084,1.084,0,0,0,1.084,1.084h5.326a1.083,1.083,0,0,0,1.084-1.083,1.084,1.084,0,0,0-1.084-1.084Z" transform="translate(920.305 519.093)" fill="#239fdb" fill-rule="evenodd"/>
    <path id="Path_306846" data-name="Path 306846" d="M-340.123,1168.36l-.694.054-1.084.089.174,2.159,1.08-.084.614-.047,1.351.134,1.08.106.216-2.155-1.08-.11-1.461-.144h-.1Zm-5.288,1.024-1.753.809-.085.039-.076.054-.195.135-.893.614,1.236,1.782.889-.614.114-.081,1.672-.775.982-.453-.906-1.969Zm9.514,1.918.974.478.965.47.737.529.876.635,1.27-1.753-.876-.635-.813-.593-.076-.055-.085-.039-1.046-.512-.974-.474Zm-15.2,2.155-1.262,1.761-.631.885,1.766,1.257.631-.881,1.262-1.761.631-.885-1.766-1.257Zm20.06,1.19.614.9.779,1.139.246.542.449.987,1.973-.894-.445-.987-.284-.626-.042-.084-.051-.08-.838-1.219-.61-.9Zm-23.041,4.941-.114.419-.288,1.046,2.092.572.284-1.046.114-.415.288-1.046-2.091-.577Z" transform="translate(914.619 499.242)" fill="#239fdb"/>
  </g>
</svg>
