<svg xmlns="http://www.w3.org/2000/svg" width="40.165" height="50.382" viewBox="0 0 40.165 50.382">
  <g id="Group_17929" data-name="Group 17929" transform="translate(-2.532 -0.124)">
    <path id="Path_306831" data-name="Path 306831" d="M30.991,43.4a12.031,12.031,0,0,1-4.274-1.029,9.673,9.673,0,0,0-3.241-.842,9.527,9.527,0,0,0-3.04.8,12.878,12.878,0,0,1-4.459,1.048c-2.679,0-5.085-1.532-7.356-4.682-.1-.134-9.355-13.729-4.856-23.826,2.463-5.53,6.012-8.334,10.545-8.334a19.759,19.759,0,0,1,6.376,1.355,10.706,10.706,0,0,0,2.425.653,9.263,9.263,0,0,0,2.505-.708,17.248,17.248,0,0,1,6.054-1.362c3.415,0,6.506,1.576,9.444,4.819a1.056,1.056,0,0,1-.159,1.57c-3.1,2.261-4.675,4.875-4.675,7.772,0,3.593,1.769,6.23,5.918,8.814a1.058,1.058,0,0,1,.407,1.332C38.7,39.5,35.123,43.4,30.991,43.4ZM23.473,39.4a11.282,11.282,0,0,1,3.994.982,10.173,10.173,0,0,0,3.523.891c1.92,0,4.949-1.114,9.3-10.547-4.238-2.847-6.139-5.995-6.139-10.108,0-3.286,1.544-6.226,4.592-8.748a10.007,10.007,0,0,0-7.079-3.294A15.233,15.233,0,0,0,26.347,9.81a10.071,10.071,0,0,1-3.237.84A10.725,10.725,0,0,1,20,9.882a18.074,18.074,0,0,0-5.693-1.241c-3.67,0-6.485,2.314-8.608,7.076C2.21,23.556,8.471,34.847,10.34,37.441c2.456,3.407,4.393,3.8,5.636,3.8a11.019,11.019,0,0,0,3.719-.921,11.185,11.185,0,0,1,3.778-.921Z" transform="translate(0 7.11)" fill="#b8b810"/>
    <path id="Path_306832" data-name="Path 306832" d="M13.18,13.034a6.567,6.567,0,0,1-.766-.047,1.061,1.061,0,0,1-.929-1.012C11.2,4.876,17.219.534,21.667.129A1.054,1.054,0,0,1,22.808,1a10.2,10.2,0,0,1-2.52,8.239,9.724,9.724,0,0,1-7.108,3.8ZM20.812,2.422a9.552,9.552,0,0,0-7.2,8.472,8.043,8.043,0,0,0,5.044-3.016A8.692,8.692,0,0,0,20.812,2.422Z" transform="translate(10.028 0)" fill="#b8b810"/>
  </g>
</svg>
