<svg xmlns="http://www.w3.org/2000/svg" width="56.455" height="50" viewBox="0 0 56.455 50">
  <g id="_Group_" data-name="&lt;Group&gt;" transform="translate(-16 -43)">
    <g id="_Group_2" data-name="&lt;Group&gt;" transform="translate(16 43)">
      <path id="_Compound_Path_" data-name="&lt;Compound Path&gt;" d="M72.455,48.869A5.869,5.869,0,0,0,66.587,43H21.869A5.869,5.869,0,0,0,16,48.869V87.131A5.869,5.869,0,0,0,21.869,93H66.587a5.869,5.869,0,0,0,5.869-5.869ZM21.819,45.347h44.7a3.482,3.482,0,0,1,3.472,3.519v4.7H18.347v-4.7a3.482,3.482,0,0,1,3.472-3.519Zm44.7,45.305h-44.7a3.482,3.482,0,0,1-3.472-3.519V55.911H69.991V87.133a3.482,3.482,0,0,1-3.472,3.519Z" transform="translate(-16 -43)" fill="#00efd1"/>
      <path id="_Compound_Path_2" data-name="&lt;Compound Path&gt;" d="M96.953,190.174A1.174,1.174,0,0,0,95.779,189H78.174A1.174,1.174,0,0,0,77,190.174v24.3a1.174,1.174,0,0,0,1.174,1.174H95.779a1.174,1.174,0,0,0,1.174-1.174ZM94.606,213.3H79.347V191.347H94.606Z" transform="translate(-69.84 -171.864)" fill="#00efd1"/>
    </g>
    <g id="_Group_3" data-name="&lt;Group&gt;" transform="translate(19.169 45.933)">
      <path id="_Compound_Path_3" data-name="&lt;Compound Path&gt;" d="M46.492,67.985a3.492,3.492,0,1,0,3.492,3.492A3.492,3.492,0,0,0,46.492,67.985Zm0,4.636a1.144,1.144,0,1,1,1.144-1.144A1.144,1.144,0,0,1,46.492,72.621Zm7.629-4.636a3.492,3.492,0,1,0,3.492,3.492A3.492,3.492,0,0,0,54.121,67.985Zm0,4.636a1.144,1.144,0,1,1,1.144-1.144A1.144,1.144,0,0,1,54.121,72.621Zm11.121-1.144a3.492,3.492,0,1,0-3.492,3.492A3.492,3.492,0,0,0,65.242,71.477ZM61.75,72.621a1.144,1.144,0,1,1,1.144-1.144A1.144,1.144,0,0,1,61.75,72.621Z" transform="translate(-43 -67.985)" fill="#00acea"/>
      <path id="_Path_" data-name="&lt;Path&gt;" d="M269.174,236.347h10.211a1.174,1.174,0,0,0,0-2.347H269.174a1.174,1.174,0,0,0,0,2.347Zm17.254,2.347H269.174a1.174,1.174,0,0,0,0,2.347h17.254a1.174,1.174,0,0,0,0-2.347Zm0,4.695H269.174a1.174,1.174,0,1,0,0,2.347h17.254a1.174,1.174,0,0,0,0-2.347Zm0,4.695H269.174a1.174,1.174,0,0,0,0,2.347h17.254a1.174,1.174,0,0,0,0-2.347Z" transform="translate(-241.592 -214.515)" fill="#00acea"/>
    </g>
  </g>
</svg>
