<svg width="32" height="32" xmlns="http://www.w3.org/2000/svg">

 <g>
  <title>background</title>
  <rect fill="none" id="canvas_background" height="602" width="802" y="-1" x="-1"/>
 </g>
 <g>
  <title>Layer 1</title>
  <circle id="svg_1" fill="#FFF" r="14.5" cy="16" cx="16"/>
  <path id="svg_2" d="m30.5,16c0,-1.339 -0.196,-2.631 -0.536,-3.862c-2.134,-5.351 -7.352,-9.138 -13.464,-9.138c-8.008,0 -14.5,6.492 -14.5,14.5c0,1.339 0.196,2.631 0.536,3.862c2.134,5.351 7.352,9.138 13.464,9.138c8.008,0 14.5,-6.492 14.5,-14.5z" fill="#000000"/>
  <path id="svg_3" d="m20.95,29.614c-0.654,0.237 -1.349,-0.25 -1.347,-0.946c0.005,-1.227 0.01,-2.677 0.01,-3.69c0,-1.358 -0.464,-2.246 -0.984,-2.696c3.23,-0.36 6.62,-1.591 6.62,-7.183c0,-1.59 -0.561,-2.889 -1.491,-3.907c0.15,-0.369 0.647,-1.848 -0.144,-3.853c0,0 -1.215,-0.391 -3.983,1.492c-1.158,-0.323 -2.399,-0.484 -3.63,-0.49c-1.233,0.006 -2.473,0.167 -3.63,0.49c-2.77,-1.882 -3.988,-1.491 -3.988,-1.491c-0.788,2.004 -0.291,3.484 -0.141,3.853c-0.928,1.018 -1.493,2.317 -1.493,3.907c0,5.578 3.385,6.827 6.605,7.194c-0.415,0.364 -0.79,1.006 -0.921,1.946c-0.827,0.373 -2.926,1.016 -4.221,-1.209c0,0 -0.766,-1.397 -2.22,-1.5c0,0 -1.417,-0.018 -0.1,0.885c0,0 0.951,0.448 1.609,2.129c0,0 0.851,2.832 4.885,1.952c0.003,0.522 0.007,1.358 0.011,2.169c0.003,0.694 -0.688,1.189 -1.34,0.952c-1.435,-0.521 -2.765,-1.261 -3.949,-2.18c2.457,1.912 5.538,3.062 8.892,3.062c3.279,0 6.294,-1.102 8.724,-2.938c-1.14,0.859 -2.408,1.556 -3.774,2.052z" fill="#FFF"/>
  <path id="svg_4" d="m11.393,30.176c-0.171,0 -0.342,-0.029 -0.506,-0.089c-6.192,-2.246 -10.159,-8.176 -9.872,-14.757c0.012,-0.275 0.232,-0.485 0.521,-0.478c0.276,0.012 0.49,0.246 0.478,0.521c-0.268,6.142 3.435,11.677 9.214,13.772c0.151,0.056 0.318,0.033 0.453,-0.063c0.139,-0.098 0.218,-0.25 0.217,-0.417l-0.008,-1.573c-3.927,0.561 -4.857,-2.375 -4.867,-2.406c-0.552,-1.405 -1.342,-1.82 -1.35,-1.824c-0.342,-0.229 -0.996,-0.676 -0.81,-1.262c0.167,-0.528 0.852,-0.563 1.136,-0.572c1.736,0.122 2.616,1.693 2.652,1.76c0.956,1.643 2.414,1.446 3.335,1.094c0.09,-0.452 0.239,-0.863 0.439,-1.216c-2.872,-0.486 -6.176,-1.973 -6.176,-7.568c0,-1.531 0.479,-2.88 1.424,-4.016c-0.208,-0.674 -0.468,-2.112 0.244,-3.925c0.055,-0.14 0.17,-0.247 0.313,-0.293c0.144,-0.047 1.473,-0.394 4.23,1.426c1.119,-0.291 2.309,-0.442 3.539,-0.448c1.234,0.006 2.423,0.157 3.543,0.448c2.756,-1.82 4.08,-1.473 4.226,-1.426c0.143,0.046 0.257,0.153 0.312,0.292c0.715,1.813 0.456,3.251 0.247,3.927c0.944,1.133 1.422,2.482 1.422,4.016c0,5.595 -3.308,7.078 -6.185,7.559c0.354,0.623 0.549,1.426 0.549,2.32c0,1.013 -0.005,2.465 -0.01,3.692c0,0.166 0.077,0.315 0.214,0.412c0.137,0.096 0.306,0.119 0.463,0.063c5.515,-2.004 9.22,-7.287 9.22,-13.145c0,-3.863 -1.54,-7.46 -4.335,-10.129c-2.794,-2.667 -6.462,-4.037 -10.336,-3.855c-0.275,0.021 -0.509,-0.201 -0.523,-0.476c-0.013,-0.276 0.2,-0.51 0.476,-0.523c4.152,-0.19 8.08,1.274 11.073,4.131c2.996,2.859 4.645,6.713 4.645,10.852c0,6.277 -3.97,11.937 -9.878,14.084c-0.463,0.167 -0.978,0.099 -1.38,-0.185c-0.401,-0.283 -0.64,-0.744 -0.638,-1.233c0.005,-1.226 0.01,-2.676 0.01,-3.688c0,-1.459 -0.567,-2.107 -0.811,-2.317c-0.15,-0.13 -0.21,-0.337 -0.151,-0.526c0.059,-0.19 0.225,-0.327 0.422,-0.349c3.054,-0.34 6.176,-1.401 6.176,-6.686c0,-1.38 -0.458,-2.582 -1.36,-3.569c-0.13,-0.143 -0.167,-0.347 -0.094,-0.526c0.139,-0.34 0.524,-1.537 -0.042,-3.198c-0.423,0.012 -1.503,0.189 -3.34,1.44c-0.122,0.083 -0.274,0.109 -0.416,0.068c-1.084,-0.302 -2.293,-0.465 -3.499,-0.472c-1.218,0.006 -2.395,0.165 -3.494,0.472c-0.141,0.042 -0.293,0.015 -0.416,-0.068c-1.83,-1.245 -2.91,-1.427 -3.346,-1.438c-0.563,1.661 -0.177,2.855 -0.039,3.196c0.072,0.179 0.036,0.383 -0.094,0.525c-0.904,0.991 -1.362,2.192 -1.362,3.57c0,5.282 3.115,6.35 6.162,6.697c0.196,0.022 0.361,0.158 0.42,0.347c0.059,0.188 0.001,0.395 -0.147,0.525c-0.224,0.197 -0.621,0.672 -0.756,1.64c-0.023,0.17 -0.133,0.316 -0.29,0.386c-0.75,0.338 -3.316,1.237 -4.858,-1.413c-0.011,-0.019 -0.525,-0.921 -1.444,-1.186c0.326,0.218 1.077,0.852 1.631,2.265c0.043,0.133 0.808,2.409 4.313,1.646c0.148,-0.031 0.301,0.003 0.419,0.098c0.118,0.094 0.187,0.237 0.188,0.387l0.011,2.17c0.002,0.491 -0.237,0.955 -0.641,1.239c-0.256,0.181 -0.558,0.275 -0.863,0.275z" fill="#455A64"/>
  <path id="svg_5" d="m15.737,31c-8.263,0 -14.737,-6.589 -14.737,-15c0,-3.629 1.238,-7.111 3.485,-9.804c0.176,-0.212 0.493,-0.241 0.704,-0.063c0.212,0.177 0.241,0.492 0.064,0.704c-2.098,2.513 -3.253,5.767 -3.253,9.163c0,7.851 6.034,14 13.737,14c7.865,0 14.263,-6.28 14.263,-14s-6.398,-14 -14.263,-14c-2.441,0 -4.812,0.62 -6.858,1.792c-0.238,0.135 -0.545,0.053 -0.682,-0.186c-0.137,-0.24 -0.054,-0.545 0.185,-0.683c2.197,-1.258 4.741,-1.923 7.355,-1.923c8.416,0 15.263,6.729 15.263,15s-6.847,15 -15.263,15z" fill="#455A64"/>
  <path id="svg_6" d="m7.543,4.552c0,0.275 -0.225,0.5 -0.5,0.5l0,0c-0.275,0 -0.5,-0.225 -0.5,-0.5l0,0c0,-0.275 0.225,-0.5 0.5,-0.5l0,0c0.275,0 0.5,0.224 0.5,0.5l0,0z" fill="#455A64"/>
 </g>
</svg>