<?xml version="1.0" encoding="UTF-8"?><!DOCTYPE svg PUBLIC "-//W3C//DTD SVG 1.1//EN" "http://www.w3.org/Graphics/SVG/1.1/DTD/svg11.dtd"><svg xmlns="http://www.w3.org/2000/svg" xmlns:xlink="http://www.w3.org/1999/xlink" version="1.1" id="Layer_1" x="0px" y="0px" width="140px" height="140px" viewBox="0 0 140 140" xml:space="preserve"><style type="text/css"><![CDATA[
	.st0{fill:#47BBF4;}
	.st1{fill:#7BEA06;}
	.st2{fill:#49E500;}
	.st3{fill:#7ED1B5;}
	.st4{fill:#1083DD;}
	.st5{fill:#7FBA0D;}
	.st6{fill:#E01726;}
	.st7{fill:#129AFF;}
	.st8{fill:#E2102E;}
	.st9{fill:#E2137A;}
	.st10{fill:#E2573B;}
	.st11{fill:#E2A60E;}
	.st12{fill:#E3443A;}
	.st13{fill:#1558BA;}
	.st14{fill:#159B81;}
	.st15{fill:#1644B7;}
	.st16{fill:#168BF4;}
	.st17{fill:#E51F32;}
	.st18{fill:#E6EFE8;}
	.st19{fill:#187FB8;}
	.st20{fill:#4C5054;}
	.st21{fill:#4C822A;}
	.st22{fill:#E8F9F8;}
	.st23{fill:#4F5459;}
	.st24{fill:#4FCCED;}
	.st25{fill:#B0C6C4;}
	.st26{fill:none;stroke:#33363A;stroke-width:3;stroke-linecap:round;stroke-linejoin:round;stroke-miterlimit:10;}
	.st27{fill:#859392;}
	.st28{fill:#1A68E5;}
	.st29{fill:#1A70F9;}
	.st30{fill:#1B8EED;}
	.st31{fill:#EA4606;}
	.st32{fill:#EA7B0C;}
	.st33{fill:#EAF4F9;}
	.st34{fill:#B70E10;}
	.st35{fill:#1CB1E6;}
	.st36{fill:#1CDDF7;}
	.st37{fill:#EDC211;}
	.st38{fill:#EF8114;}
	.st39{fill:#55932C;}
	.st40{fill:#569FEF;}
	.st41{fill:#BA30CE;}
	.st42{fill:#BA3A3A;}
	.st43{fill:#8CF41E;}
	.st44{fill:#59C96E;}
	.st45{fill:#8E0919;}
	.st46{fill:#20B5EC;}
	.st47{fill:#21CE52;}
	.st48{fill:#21D844;}
	.st49{fill:#F17250;}
	.st50{fill:#2364CE;}
	.st51{fill:#F2303F;}
	.st52{fill:#F24444;}
	.st53{fill:#F26B95;}
	.st54{fill:#F2A775;}
	.st55{fill:#2463FF;}
	.st56{fill:#24A9E6;}
	.st57{fill:#24AEF0;}
	.st58{fill:#F34B78;}
	.st59{fill:#25D600;}
	.st60{fill:#25D800;}
	.st61{fill:#F46300;}
	.st62{fill:#F4921E;}
	.st63{fill:#F4F1E6;}
	.st64{fill:#F72B2B;}
	.st65{fill:#F7441C;}
	.st66{fill:#F7851E;}
	.st67{fill:#5CAA4F;}
	.st68{fill:#F7A56D;}
	.st69{fill:#F7B257;}
	.st70{fill:#F7B92B;}
	.st71{fill:#F8571D;}
	.st72{fill:#F91D80;}
	.st73{fill:#F92E64;}
	.st74{fill:#F93838;}
	.st75{fill:#F9A121;}
	.st76{fill:#F9BD28;}
	.st77{fill:#F9D5AA;}
	.st78{fill:#5FB2A2;}
	.st79{fill:#9165B7;}
	.st80{fill:#95C675;}
	.st81{fill:#2A98F2;}
	.st82{fill:#2AC106;}
	.st83{fill:#C6232C;}
	.st84{fill:#C6402A;}
	.st85{fill:#FA7B7A;}
	.st86{fill:#FA9826;}
	.st87{fill:#2CC64D;}
	.st88{fill:#FB6620;}
	.st89{fill:#C7D5E0;}
	.st90{fill:#C8131A;}
	.st91{fill:#2DB487;}
	.st92{fill:#FC732D;}
	.st93{fill:#C8D8E8;}
	.st94{fill:#2ED3FF;}
	.st95{fill:#FF0DA9;}
	.st96{fill:#FF4743;}
	.st97{fill:#FF6155;}
	.st98{fill:#FF7639;}
	.st99{fill:#FF7676;}
	.st100{fill:#FF88AD;}
	.st101{fill:#FF9064;}
	.st102{fill:#FFA506;}
	.st103{fill:#FFBE8D;}
	.st104{fill:#FFEB5A;}
	.st105{fill:#FFF19C;}
	.st106{fill:#FFFDF5;}
	.st107{fill:#FFFFFF;}
	.st108{fill:#63C605;}
	.st109{fill:#64C0FF;}
	.st110{fill:#66A00A;}
	.st111{fill:#CAFFE9;}
	.st112{fill:#680719;}
	.st113{fill:none;stroke:#FCE2AE;stroke-width:3;stroke-linecap:round;stroke-linejoin:round;stroke-miterlimit:10;}
	.st114{fill:#CC2414;}
	.st115{fill:#CC4521;}
	.st116{fill:#9DEACE;}
	.st117{fill:#303030;}
	.st118{fill:#CE1721;}
	.st119{fill:#33363A;}
	.st120{fill:#337BD1;}
	.st121{fill:#6A7C7C;}
	.st122{fill:#37D660;}
	.st123{fill:#384948;}
	.st124{fill:#38B4F9;}
	.st125{fill:#6CA9EA;}
	.st126{fill:#6D8599;}
	.st127{fill:#0097E2;}
	.st128{fill:#00997C;}
	.st129{fill:#00A4DD;}
	.st130{fill:#0399FF;}
	.st131{fill:#D33F26;}
	.st132{fill:#0695ED;}
	.st133{fill:#0779EA;}
	.st134{fill:#079332;}
	.st135{fill:#D6381E;}
	.st136{fill:#3BAA00;}
	.st137{fill:#D6E5EA;}
	.st138{fill:#D6E7EA;}
	.st139{fill:#08A548;}
	.st140{fill:#08BC26;}
	.st141{fill:#D80B0B;}
	.st142{fill:#D8532B;}
	.st143{fill:#3DC8F9;}
	.st144{fill:#3E77BF;}
	.st145{fill:#3E8AF7;}
	.st146{fill:#D9E5ED;}
	.st147{fill:#72818E;}
	.st148{fill:#0A78DD;}
	.st149{fill:#0A8CDD;}
	.st150{fill:#A52D21;}
	.st151{fill:#76CEFF;}
	.st152{fill:#76DB00;}
	.st153{fill:#0C86EA;}
	.st154{fill:#DB0F4E;}
	.st155{fill:#A7B7B6;}
	.st156{fill:#0DBA5B;}
	.st157{fill:#79B259;}
	.st158{fill:#0E73D8;}
	.st159{fill:#0E78D8;}
	.st160{fill:#0E8971;}
	.st161{fill:#A981D3;}
	.st162{fill:#DD4B4B;}
	.st163{fill:#4087ED;}
	.st164{fill:#40A557;}
	.st165{fill:#40E269;}
	.st166{fill:#DFC7FF;}
	.st167{fill:#DFEFEF;}
	.st168{fill:#44FCB6;}
]]></style><path class="st96" d="M71.402 8.477c-18.663 0-35.302 8.184-46.575 21.16a61.26 61.26 0 0 0-8.718 13.109L36.841 58.58a36.35 36.35 0 0 1 13.11-17.974c6.005-4.376 13.411-6.961 21.451-6.961 8.682 0 16.522 3.077 22.683 8.11l17.924-17.898c-10.923-9.508-24.926-15.38-40.607-15.38z" fill="#FF4743"/><path class="st12" d="M24.827 38.853a61.771 61.771 0 0 0-5.044 6.698L36.841 58.58a36.35 36.35 0 0 1 13.11-17.974c6.005-4.376 13.411-6.961 21.451-6.961 8.682 0 16.522 3.077 22.683 8.11l12.748-12.73C96.8 21.934 84.709 17.693 71.402 17.693c-18.663 0-35.301 8.184-46.575 21.16z" fill="#E3443A"/><path class="st70" d="M34.996 70c0-.567.04-1.125.066-1.686a36.706 36.706 0 0 1 1.778-9.734L16.109 42.745c-3.812 7.732-6.025 16.392-6.271 25.569-.017.563-.049 1.122-.049 1.686 0 .566.032 1.126.049 1.69.246 9.166 2.459 17.822 6.261 25.545l20.725-15.863a36.54 36.54 0 0 1-1.761-9.682c-.027-.564-.067-1.121-.067-1.69z" fill="#F7B92B"/><path class="st70" d="M16.099 97.235l20.725-15.863a36.54 36.54 0 0 1-1.761-9.682c-.026-.564-.066-1.121-.066-1.69 0-.567.04-1.125.066-1.686a36.706 36.706 0 0 1 1.778-9.734L16.109 42.745" fill="#F7B92B"/><path class="st44" d="M91.863 100.977c-5.555 3.498-12.55 5.378-20.461 5.378a36.392 36.392 0 0 1-21.451-6.996c-6.065-4.416-10.708-10.653-13.11-17.938L16.109 97.255a61.345 61.345 0 0 0 8.704 13.091c11.272 12.987 27.92 21.178 46.589 21.178 5.645 0 11.193-.752 16.493-2.223 8.809-2.445 16.927-6.868 23.648-13.109l-19.68-15.215z" fill="#59C96E"/><path class="st164" d="M16.109 97.255a61.345 61.345 0 0 0 8.704 13.091c11.272 12.987 27.92 21.178 46.589 21.178 5.645 0 11.193-.752 16.493-2.223 8.809-2.445 16.927-6.868 23.648-13.109l-19.681-15.215c-5.555 3.498-12.55 5.378-20.461 5.378a36.392 36.392 0 0 1-21.451-6.996" fill="#40A557"/><path class="st127" d="M128.811 58.813H71.402v23.772h33.045c-1.652 8.102-6.15 14.334-12.584 18.391l19.681 15.215c5.398-5.011 9.882-11.205 13.106-18.479 3.537-7.966 5.561-17.229 5.561-27.712 0-3.635-.559-7.55-1.4-11.187z" fill="#0097E2"/><path class="st163" d="M111.544 116.191c5.398-5.011 9.882-11.205 13.106-18.479 3.537-7.966 5.561-17.229 5.561-27.712 0-3.635-.559-7.55-1.4-11.187h-3.693" fill="#4087ED"/><path class="st163" fill="#4087ED" d="M71.402 68.314v14.272h33.045"/><g><path class="st26" d="M35.062 71.69c-.026-.564-.066-1.121-.066-1.69 0-.567.04-1.125.066-1.686a36.706 36.706 0 0 1 1.778-9.734 36.35 36.35 0 0 1 13.11-17.974c6.005-4.376 13.411-6.961 21.451-6.961 8.682 0 16.522 3.077 22.683 8.11l17.924-17.898c-10.923-9.507-24.926-15.38-40.606-15.38-18.663 0-35.302 8.184-46.575 21.16a61.26 61.26 0 0 0-8.718 13.109c-3.812 7.732-6.025 16.392-6.271 25.569-.017.562-.049 1.121-.049 1.685 0 .566.032 1.126.049 1.69.246 9.166 2.459 17.822 6.261 25.545l20.725-15.863a36.54 36.54 0 0 1-1.762-9.682z" fill="none" stroke="#33363A" stroke-linecap="round" stroke-linejoin="round" stroke-miterlimit="10" stroke-width="3"/><path class="st26" d="M128.811 58.813H71.402v23.772h33.045c-1.652 8.102-6.15 14.334-12.584 18.391-5.555 3.498-12.55 5.378-20.461 5.378a36.392 36.392 0 0 1-21.451-6.996c-6.065-4.416-10.708-10.653-13.11-17.938L16.109 97.255a61.345 61.345 0 0 0 8.704 13.091c11.272 12.987 27.92 21.178 46.589 21.178 5.645 0 11.193-.752 16.493-2.223 8.809-2.445 16.927-6.868 23.648-13.109 5.398-5.011 9.882-11.205 13.106-18.479 3.537-7.966 5.561-17.229 5.561-27.712.001-3.636-.558-7.551-1.399-11.188z" fill="none" stroke="#33363A" stroke-linecap="round" stroke-linejoin="round" stroke-miterlimit="10" stroke-width="3"/></g><path class="st26" fill="none" stroke="#33363A" stroke-linecap="round" stroke-linejoin="round" stroke-miterlimit="10" stroke-width="3" d="M36.841 58.58L16.109 42.745"/><path class="st26" fill="none" stroke="#33363A" stroke-linecap="round" stroke-linejoin="round" stroke-miterlimit="10" stroke-width="3" d="M91.863 100.977l19.681 15.214"/><path class="st26" fill="none" stroke="#33363A" stroke-linecap="round" stroke-linejoin="round" stroke-miterlimit="10" stroke-width="3" d="M78.902 82.586h33.045"/><g><path class="st26" fill="none" stroke="#33363A" stroke-linecap="round" stroke-linejoin="round" stroke-miterlimit="10" stroke-width="3" d="M31.457 131.523h6.525"/><path class="st26" fill="none" stroke="#33363A" stroke-linecap="round" stroke-linejoin="round" stroke-miterlimit="10" stroke-width="3" d="M50.818 131.523h18.821"/><path class="st26" fill="none" stroke="#33363A" stroke-linecap="round" stroke-linejoin="round" stroke-miterlimit="10" stroke-width="3" d="M43.854 131.523h1.218"/></g><metadata><rdf:RDF xmlns:rdf="http://www.w3.org/1999/02/22-rdf-syntax-ns#" xmlns:rdfs="http://www.w3.org/2000/01/rdf-schema#" xmlns:dc="http://purl.org/dc/elements/1.1/"><rdf:Description about="https://iconscout.com/legal#licenses" dc:title="google" dc:description="google" dc:publisher="Iconscout" dc:date="2018-01-30" dc:format="image/svg+xml" dc:language="en"><dc:creator><rdf:Bag><rdf:li>Roundicons.com</rdf:li></rdf:Bag></dc:creator></rdf:Description></rdf:RDF></metadata></svg>