<?xml version="1.0" encoding="UTF-8"?><svg xmlns="http://www.w3.org/2000/svg" viewBox="0 0 32 32"><path d="M25 1L12.611 13.388A9 9 0 0 0 1 22a9 9 0 0 0 9 9 9 9 0 0 0 8.611-11.612L21 17v-2h2l8-8V1h-6zm4 5.171L22.172 13H19v3.171l-1.803 1.802-.848.848.348 1.147c.201.662.303 1.345.303 2.032 0 3.86-3.141 7-7 7s-7-3.14-7-7 3.141-7 7-7c.686 0 1.37.102 2.031.302l1.146.348.848-.848L25.828 3H29v3.171z"/><circle cx="8" cy="24" r="2"/><path d="M20.646 10.647l6-6 .707.707-6 6z"/><metadata><rdf:RDF xmlns:rdf="http://www.w3.org/1999/02/22-rdf-syntax-ns#" xmlns:rdfs="http://www.w3.org/2000/01/rdf-schema#" xmlns:dc="http://purl.org/dc/elements/1.1/"><rdf:Description about="https://iconscout.com/legal#licenses" dc:title="password,key" dc:description="password,key" dc:publisher="Iconscout" dc:date="2017-09-15" dc:format="image/svg+xml" dc:language="en"><dc:creator><rdf:Bag><rdf:li>IBM-Design</rdf:li></rdf:Bag></dc:creator></rdf:Description></rdf:RDF></metadata></svg>