<svg xmlns="http://www.w3.org/2000/svg" xmlns:xlink="http://www.w3.org/1999/xlink" width="79.267" height="64.002" viewBox="0 0 79.267 64.002">
  <defs>
    <linearGradient id="linear-gradient" x1="0.414" y1="0.393" x2="0.853" y2="0.056" gradientUnits="objectBoundingBox">
      <stop offset="0" stop-color="#ee0957"/>
      <stop offset="1" stop-color="#ff5353"/>
    </linearGradient>
    <filter id="Path_306857" x="0" y="0" width="79.267" height="64.002" filterUnits="userSpaceOnUse">
      <feOffset dx="1" dy="1" input="SourceAlpha"/>
      <feGaussianBlur stdDeviation="3" result="blur"/>
      <feFlood flood-color="#fe5454" flood-opacity="0.6"/>
      <feComposite operator="in" in2="blur"/>
      <feComposite in="SourceGraphic"/>
    </filter>
  </defs>
  <g transform="matrix(1, 0, 0, 1, 0, 0)" filter="url(#Path_306857)">
    <path id="Path_306857-2" data-name="Path 306857" d="M255.747,380.267l10.688.038V367.457h14.78a17.516,17.516,0,0,0,7.328-1.385,14.226,14.226,0,0,0,4.921-3.573,13.434,13.434,0,0,0,2.734-4.958c3.459-11.442-3.381-23.237-14.983-23.237H254.463a2.806,2.806,0,0,0-2.8,2.8h0a2.806,2.806,0,0,0,2.8,2.8h13.112a2.78,2.78,0,0,0,.681-.084h6.834a2.807,2.807,0,0,1,2.8,2.8h0a2.807,2.807,0,0,1-2.8,2.8h-6.835a2.816,2.816,0,0,0-.68-.084H246.669a2.808,2.808,0,0,0-2.8,2.8h0a2.807,2.807,0,0,0,2.8,2.8h20.906a2.768,2.768,0,0,0,.68-.084h.649a2.807,2.807,0,0,1,2.8,2.8h0a2.807,2.807,0,0,1-2.8,2.8h-.648a2.765,2.765,0,0,0-.681-.084H251.988a2.808,2.808,0,0,0-2.8,2.8h0a2.808,2.808,0,0,0,2.8,2.8h3.906c-.05,8.641-.11,16.389-.148,18.308Zm-13.283-23.906a2.808,2.808,0,0,1,2.8,2.8h0a2.808,2.808,0,0,1-2.8,2.8h-3.834a2.808,2.808,0,0,1-2.8-2.8h0a2.807,2.807,0,0,1,2.8-2.8Zm3.092-22.057a2.808,2.808,0,0,1,2.8,2.8h0a2.808,2.808,0,0,1-2.8,2.8h-5.814a2.807,2.807,0,0,1-2.8-2.8h0a2.807,2.807,0,0,1,2.8-2.8Zm35.224,16.543a2.807,2.807,0,0,1,2.8,2.8h0a2.807,2.807,0,0,1-2.8,2.8h-3.556a2.807,2.807,0,0,1-2.8-2.8h0a2.807,2.807,0,0,1,2.8-2.8Z" transform="translate(-227.83 -326.3)" fill-rule="evenodd" fill="url(#linear-gradient)"/>
  </g>
</svg>
