<svg xmlns="http://www.w3.org/2000/svg" width="36" height="36" viewBox="0 0 36 36">
  <path id="Photos_Icon" data-name="Photos Icon" d="M7.2,0A7.2,7.2,0,0,0,0,7.2V28.8A7.2,7.2,0,0,0,7.2,36H28.8A7.2,7.2,0,0,0,36,28.8V7.2A7.2,7.2,0,0,0,28.8,0Zm0,3.6H28.8a3.606,3.606,0,0,1,3.6,3.6v4.978l-4.879,4.876a3.317,3.317,0,0,1-4.693,0L17.46,11.692,14.916,9.147,12.37,11.692l-.466.467a1.6,1.6,0,0,1-2.252,0L3.732,6.234A3.608,3.608,0,0,1,7.2,3.6ZM3.6,28.8V11.193L7.109,14.7a5.2,5.2,0,0,0,7.34,0l.467-.467L20.279,19.6a6.917,6.917,0,0,0,9.786,0L32.4,17.269V28.8a3.6,3.6,0,0,1-3.6,3.6H7.2A3.6,3.6,0,0,1,3.6,28.8Zm1.8-3.6a5.4,5.4,0,1,0,5.4-5.4A5.4,5.4,0,0,0,5.4,25.2Zm3.6,0A1.8,1.8,0,1,1,10.8,27,1.8,1.8,0,0,1,9,25.2Z" transform="translate(36 36) rotate(180)" fill="#afb0c0" opacity="0.6"/>
</svg>
